<svg width="38" height="37" viewBox="0 0 38 37" fill="none" xmlns="http://www.w3.org/2000/svg">
<path d="M18.1549 0.00202827C18.2164 0.00151879 18.278 0.00100931 18.3415 0.000484392C23.7197 -0.0338922 28.398 1.76098 32.2572 5.54189C32.7295 6.00969 33.1733 6.48662 33.5758 7.017C33.607 7.05791 33.6382 7.09882 33.6704 7.14097C34.1343 7.75139 34.56 8.37502 34.947 9.03771C34.9852 9.10194 34.9852 9.10194 35.0241 9.16746C36.033 10.8683 36.7238 12.7032 37.1436 14.6353C37.169 14.7521 37.169 14.7521 37.195 14.8714C37.4396 16.0704 37.5025 17.2617 37.4999 18.4827C37.4999 18.5892 37.4999 18.5892 37.4998 18.6978C37.4968 19.8778 37.4262 21.014 37.1842 22.1723C37.1691 22.2457 37.154 22.3191 37.1385 22.3947C36.2646 26.5068 33.9062 30.4336 30.5447 32.9976C30.4966 33.0347 30.4486 33.0719 30.3991 33.1102C29.5718 33.7481 28.7263 34.3139 27.8023 34.8018C27.7359 34.8369 27.6696 34.8721 27.6012 34.9083C25.6148 35.945 23.4744 36.6502 21.235 36.8225C21.235 32.0356 21.235 27.2486 21.235 22.3167C22.6877 22.3167 24.1405 22.3167 25.6373 22.3167C25.6781 21.9891 25.7189 21.6615 25.761 21.3241C25.787 21.1159 25.813 20.9077 25.839 20.6995C25.8802 20.3695 25.9214 20.0394 25.9625 19.7094C25.9957 19.4431 26.0289 19.1768 26.0622 18.9106C26.0748 18.8093 26.0874 18.708 26.1001 18.6067C26.1178 18.4642 26.1356 18.3217 26.1534 18.1792C26.1686 18.0578 26.1686 18.0578 26.184 17.934C26.2161 17.6866 26.2515 17.4397 26.2868 17.1927C24.6197 17.1927 22.9526 17.1927 21.235 17.1927C21.2283 16.1969 21.2283 16.1969 21.2215 15.181C21.2195 14.9728 21.2175 14.7647 21.2155 14.5502C21.2149 14.3833 21.2143 14.2164 21.2139 14.0495C21.2122 13.9218 21.2122 13.9218 21.2105 13.7915C21.2103 13.1798 21.2595 12.4868 21.668 11.9966C22.5935 11.1998 23.7534 11.3199 24.8975 11.3336C25.4274 11.338 25.9573 11.3425 26.5033 11.3471C26.5033 9.84672 26.5033 8.34634 26.5033 6.8005C21.9315 6.38854 19.3361 7.017 17.8995 8.26444C16.4629 9.51188 16.0452 11.3897 16.0197 13.2212C16.0185 13.3235 16.0173 13.4257 16.016 13.5279C16.0146 13.6339 16.013 13.7399 16.0115 13.8458C16.0075 14.123 16.004 14.4001 16.0005 14.6773C15.9962 15.0107 15.9914 15.3442 15.9867 15.6777C15.9797 16.1827 15.9733 16.6877 15.9667 17.1927C14.4901 17.1927 13.0136 17.1927 11.4923 17.1927C11.4923 18.8836 11.4923 20.5745 11.4923 22.3167C12.9688 22.3167 14.4454 22.3167 15.9667 22.3167C15.9667 27.0798 15.9667 31.8429 15.9667 36.7503C14.5204 36.4951 14.5204 36.4951 13.9099 36.3128C13.8377 36.2914 13.7655 36.27 13.6911 36.2479C11.0695 35.4461 8.66683 34.1468 6.657 32.2759C6.56405 32.1959 6.47083 32.1162 6.37735 32.0368C5.70679 31.4502 5.11432 30.8106 4.56412 30.1108C4.50139 30.0345 4.43852 29.9583 4.37552 29.8822C3.88061 29.278 3.46516 28.6412 3.07255 27.9666C3.00992 27.859 2.9468 27.7517 2.8831 27.6448C1.24751 24.8957 0.488074 21.7416 0.500142 18.5594C0.500273 18.4875 0.500405 18.4156 0.50054 18.3416C0.503769 17.2942 0.536789 16.2745 0.739199 15.2442C0.750816 15.1795 0.762433 15.1149 0.774402 15.0483C1.42125 11.4729 3.15292 8.26409 5.64664 5.64581C5.6878 5.60258 5.72895 5.55936 5.77135 5.51483C6.34872 4.91292 6.94168 4.36118 7.61193 3.86433C7.74237 3.76732 7.87136 3.66857 8.00029 3.56956C8.99754 2.8116 10.0759 2.21645 11.2036 1.67656C11.2697 1.64418 11.3359 1.61181 11.404 1.57845C13.4728 0.596671 15.8626 0.0147834 18.1549 0.00202827Z" fill="black"/>
</svg>
