<svg width="51" height="51" viewBox="0 0 51 51" fill="none" xmlns="http://www.w3.org/2000/svg">
<path d="M24.29 0.00451018C24.3841 0.00417605 24.4783 0.00382815 24.5725 0.00346752C24.7687 0.00285428 24.965 0.00265639 25.1612 0.00271825C25.3584 0.0027266 25.5557 0.00201608 25.7529 0.000598223C29.7285 -0.0275357 33.5282 0.937547 37.0824 2.70967C37.1296 2.73318 37.1769 2.75669 37.2255 2.78092C38.2578 3.29865 39.2461 3.89623 40.1837 4.57045C40.2231 4.5987 40.2626 4.62695 40.3032 4.65606C40.7813 4.9998 41.2472 5.35158 41.6918 5.73788C41.8638 5.88496 42.0424 6.02128 42.2248 6.15522C42.2506 6.17807 42.2764 6.20093 42.3029 6.22447C42.3029 6.25859 42.3029 6.2927 42.3029 6.32785C42.3461 6.34704 42.3461 6.34704 42.3902 6.36662C42.6259 6.49404 42.786 6.65679 42.9527 6.86432C43.0348 6.95741 43.1228 7.03553 43.2172 7.1161C43.5804 7.42659 43.9134 7.76791 44.2239 8.13089C44.337 8.2613 44.4538 8.38792 44.5708 8.51491C44.8251 8.79416 45.0653 9.08232 45.3009 9.37746C45.3329 9.41729 45.3329 9.41729 45.3656 9.45792C48.5174 13.379 50.4053 18.0908 50.9349 23.2816C50.9404 23.3353 50.9458 23.3889 50.9515 23.4442C51.0093 24.1083 50.9992 24.7768 50.9995 25.4428C50.9995 25.5433 50.9995 25.5433 50.9996 25.6458C50.9988 26.6767 50.9704 27.6865 50.8315 28.7089C50.8226 28.7763 50.8138 28.8436 50.8046 28.913C50.3562 32.2696 49.2405 35.5079 47.5235 38.4263C47.4867 38.489 47.4867 38.489 47.4492 38.5529C46.9559 39.3882 46.4119 40.1922 45.8177 40.959C45.7963 40.9869 45.7749 41.0148 45.7529 41.0435C45.4894 41.3859 45.2197 41.7224 44.939 42.051C44.9051 42.0907 44.9051 42.0907 44.8705 42.1313C44.4115 42.6633 43.927 43.1695 43.4303 43.6661C43.3365 43.7601 43.2431 43.8544 43.1497 43.9488C42.797 44.3032 42.4365 44.6281 42.0445 44.939C41.9843 44.9904 41.9245 45.0423 41.8652 45.0947C41.38 45.5236 40.8651 45.9062 40.3388 46.2829C40.3079 46.3051 40.2771 46.3273 40.2453 46.3501C36.5543 48.9945 32.2246 50.4898 27.7268 50.9349C27.6732 50.9404 27.6195 50.9458 27.5643 50.9515C26.9002 51.0093 26.2316 50.9992 25.5656 50.9995C25.4986 50.9995 25.4317 50.9996 25.3627 50.9996C24.3318 50.9988 23.3219 50.9704 22.2995 50.8315C22.2322 50.8226 22.1648 50.8138 22.0954 50.8046C18.7389 50.3562 15.5006 49.2405 12.5821 47.5235C12.5195 47.4867 12.5195 47.4867 12.4556 47.4492C11.6203 46.9559 10.8163 46.4119 10.0494 45.8177C10.0216 45.7963 9.99369 45.7749 9.96499 45.7529C9.31359 45.2517 8.69162 44.7184 8.08525 44.1637C8.04536 44.1273 8.04536 44.1273 8.00467 44.0902C7.56146 43.6855 7.12318 43.2842 6.74136 42.8198C6.65543 42.7335 6.56925 42.6473 6.48292 42.5614C6.10291 42.1642 5.75443 41.751 5.4206 41.3147C5.34443 41.2157 5.26718 41.1177 5.1897 41.0198C4.52128 40.1689 3.9184 39.2624 3.38162 38.3229C3.36238 38.2896 3.34314 38.2563 3.32332 38.222C1.33944 34.777 0.00794932 30.7231 0.00451018 26.7185C0.00417605 26.6243 0.00382815 26.5301 0.00346752 26.436C0.00285428 26.2397 0.00265639 26.0435 0.00271825 25.8472C0.0027266 25.65 0.00201608 25.4528 0.000598223 25.2555C-0.0275357 21.2799 0.937547 17.4802 2.70967 13.926C2.73318 13.8788 2.75669 13.8316 2.78092 13.7829C3.29867 12.7506 3.89638 11.7625 4.57045 10.8247C4.61159 10.7672 4.61159 10.7672 4.65356 10.7086C5.18773 9.96454 5.75053 9.2439 6.37126 8.56963C6.43197 8.50299 6.49231 8.43596 6.55053 8.36713C6.84294 8.02336 7.16229 7.70639 7.48122 7.3875C7.58062 7.28799 7.67959 7.18807 7.77856 7.08813C8.10404 6.7612 8.43084 6.44906 8.79387 6.16364C8.90911 6.07192 9.01751 5.97568 9.12548 5.87558C9.48315 5.55476 9.87143 5.27111 10.2562 4.98395C10.2933 4.95614 10.3305 4.92832 10.3687 4.89966C14.2953 1.97164 19.3529 0.00875012 24.29 0.00451018Z" fill="black"/>
<path d="M25.5365 9.57129C25.5779 9.57123 25.6194 9.57116 25.662 9.57108C26.723 9.57147 27.7749 9.66405 28.8123 9.89435C28.8511 9.90244 28.8899 9.91054 28.93 9.91888C31.1472 10.3825 33.3394 11.3823 35.1183 12.7889C35.1602 12.8215 35.2021 12.8541 35.2453 12.8876C35.3766 12.991 35.506 13.0963 35.6351 13.2024C35.6868 13.2444 35.7385 13.2865 35.7918 13.3298C36.5448 13.9523 37.265 14.6471 37.8577 15.425C37.9 15.4767 37.9422 15.5284 37.9857 15.5817C40.6413 18.838 41.7513 23.0618 41.3629 27.2132C41.2335 28.4479 40.9384 29.6005 40.5455 30.7764C40.5305 30.8224 40.5154 30.8683 40.4999 30.9157C39.9312 32.6378 38.9795 34.2565 37.806 35.6351C37.7631 35.6876 37.7201 35.7401 37.6758 35.7942C37.0545 36.5465 36.3605 37.2659 35.5834 37.8577C35.5293 37.9015 35.4752 37.9454 35.4213 37.9894C34.621 38.6388 33.7508 39.1793 32.844 39.6668C32.7997 39.6907 32.7555 39.7147 32.7099 39.7393C30.5054 40.9115 27.9576 41.4319 25.4784 41.4339C25.4238 41.434 25.4238 41.434 25.368 41.4341C24.6221 41.434 23.8837 41.4001 23.1459 41.2821C23.0886 41.273 23.0313 41.2639 22.9722 41.2546C20.1833 40.7992 17.5318 39.6433 15.3733 37.806C15.2946 37.7416 15.2946 37.7416 15.2142 37.6758C14.4619 37.0544 13.7428 36.3604 13.1507 35.5835C13.0873 35.5059 13.0873 35.5059 13.0227 35.4268C12.32 34.5653 11.7455 33.6246 11.2382 32.6372C11.2173 32.5969 11.1963 32.5566 11.1747 32.5151C10.3046 30.8266 9.85879 28.9814 9.6359 27.1066C9.63081 27.0638 9.62571 27.021 9.62046 26.9769C9.57391 26.5343 9.57178 26.091 9.57129 25.6464C9.57121 25.6049 9.57112 25.5634 9.57103 25.5206C9.57089 24.353 9.61711 23.1105 9.93634 21.983C9.9546 21.9177 9.97286 21.8525 9.99167 21.7853C10.0012 21.7513 10.0108 21.7173 10.0206 21.6822C10.0503 21.5726 10.0774 21.4625 10.1039 21.352C10.632 19.1789 11.7416 17.1495 13.1507 15.425C13.1731 15.3972 13.1955 15.3694 13.2185 15.3408C13.5607 14.918 13.9337 14.5282 14.3169 14.1425C14.3615 14.0974 14.4061 14.0524 14.452 14.006C14.7604 13.6991 15.0845 13.4213 15.425 13.1507C15.4836 13.1027 15.5422 13.0546 15.6007 13.0063C17.3653 11.5867 19.4476 10.5544 21.6498 10.0298C21.7699 10.0008 21.8894 9.97004 22.0088 9.93836C23.1553 9.64069 24.3563 9.57247 25.5365 9.57129Z" fill="#FDFDFD"/>
<path d="M12.368 20.4324C12.4314 20.4325 12.4314 20.4325 12.496 20.4326C12.5686 20.4324 12.5686 20.4324 12.6425 20.4323C12.696 20.4325 12.7495 20.4327 12.8046 20.4329C12.8605 20.4329 12.9165 20.4329 12.9742 20.4329C13.1601 20.4329 13.3461 20.4333 13.5321 20.4337C13.6607 20.4338 13.7892 20.4339 13.9178 20.4339C14.2222 20.4341 14.5266 20.4345 14.8311 20.435C15.2115 20.4357 15.592 20.436 15.9725 20.4362C16.6515 20.4368 17.3304 20.4377 18.0094 20.4388C18.005 20.4752 18.0007 20.5117 17.9961 20.5493C17.976 20.7171 17.9558 20.885 17.9357 21.0528C17.9288 21.1102 17.9219 21.1675 17.9148 21.2266C17.6353 23.5545 17.4965 25.9051 17.751 28.2437C17.7594 28.3219 17.7678 28.4001 17.7762 28.4782C17.8128 28.817 17.8498 29.1557 17.8894 29.4941C17.8962 29.552 17.8962 29.552 17.9031 29.6112C17.9154 29.7166 17.9279 29.8219 17.9404 29.9273C17.9577 30.1045 17.9577 30.1045 17.9577 30.3629C16.0473 30.3629 14.1369 30.3629 12.1686 30.3629C11.9354 29.7217 11.9354 29.7217 11.8567 29.4021C11.8482 29.3678 11.8397 29.3335 11.831 29.2982C11.8042 29.1891 11.778 29.0798 11.7519 28.9706C11.7429 28.9331 11.7338 28.8956 11.7245 28.8569C11.5813 28.2608 11.4562 27.6655 11.3933 27.0549C11.3887 27.0112 11.3841 26.9675 11.3793 26.9225C11.2647 25.7126 11.291 24.4879 11.4805 23.2881C11.49 23.2271 11.49 23.2271 11.4997 23.165C11.6224 22.3917 11.8256 21.6414 12.0782 20.9007C12.0914 20.861 12.1046 20.8212 12.1182 20.7803C12.2322 20.4414 12.2322 20.4414 12.368 20.4324Z" fill="#010101"/>
<path d="M32.999 20.4388C34.8924 20.4388 36.7857 20.4388 38.7364 20.4388C39.385 22.0602 39.6792 23.7351 39.6765 25.4784C39.6765 25.5197 39.6764 25.5609 39.6764 25.6034C39.6726 27.0794 39.4214 28.4556 38.984 29.8667C38.934 30.0315 38.8871 30.1973 38.8398 30.3629C36.9294 30.3629 35.019 30.3629 33.0507 30.3629C33.1019 29.8256 33.1019 29.8256 33.1541 29.2775C33.1781 29.0132 33.202 28.7489 33.2253 28.4845C33.235 28.3748 33.2448 28.2651 33.2545 28.1554C33.2674 28.011 33.2799 27.8666 33.2921 27.7222C33.3026 27.5978 33.3135 27.4734 33.3249 27.3491C33.3752 26.7534 33.3711 26.1566 33.3705 25.5591C33.3705 25.4731 33.3705 25.4731 33.3704 25.3853C33.3682 23.8598 33.2427 22.3645 33.0507 20.8523C33.0337 20.7158 33.0166 20.5794 32.999 20.4388Z" fill="#010101"/>
<path d="M19.7668 20.4388C21.3702 20.4388 22.9736 20.4388 24.6255 20.4388C24.6255 23.7137 24.6255 26.9887 24.6255 30.3629C23.0051 30.3629 21.3847 30.3629 19.7151 30.3629C19.4575 28.4305 19.4575 28.4305 19.405 27.6234C19.4028 27.5904 19.4007 27.5574 19.3984 27.5234C19.353 26.8149 19.3408 26.1074 19.3404 25.3976C19.3403 25.3411 19.3403 25.2847 19.3402 25.2265C19.3408 24.2789 19.3849 23.3481 19.4958 22.4072C19.5092 22.2924 19.5222 22.1776 19.5352 22.0628C19.6943 20.6563 19.6943 20.6563 19.7668 20.4388Z" fill="#010101"/>
<path d="M26.3829 20.4388C27.9863 20.4388 29.5897 20.4388 31.2416 20.4388C31.4807 21.9328 31.4807 21.9328 31.5356 22.5741C31.5416 22.6385 31.5477 22.7029 31.5539 22.7693C31.6346 23.6658 31.6661 24.5623 31.6648 25.4622C31.6648 25.5089 31.6647 25.5557 31.6647 25.6038C31.6615 27.0435 31.5495 28.4541 31.3513 29.8798C31.3437 29.9353 31.3437 29.9353 31.3359 29.9919C31.2995 30.2473 31.2995 30.2473 31.2416 30.3629C29.6383 30.3629 28.0349 30.3629 26.3829 30.3629C26.3829 27.088 26.3829 23.813 26.3829 20.4388Z" fill="#010101"/>
<path d="M12.9956 32.1203C14.7525 32.1203 16.5094 32.1203 18.3195 32.1203C18.4219 32.5468 18.5242 32.9732 18.6297 33.4125C18.7441 33.7956 18.8614 34.1724 18.9915 34.5497C19.0096 34.6028 19.0277 34.6559 19.0463 34.7107C19.5642 36.2161 20.2397 37.6757 21.2141 38.9432C21.1107 38.9949 21.1107 38.9949 21.0118 38.971C20.9716 38.9567 20.9314 38.9424 20.89 38.9276C20.8446 38.9115 20.7992 38.8953 20.7525 38.8787C20.7033 38.8605 20.6542 38.8424 20.6035 38.8237C20.5527 38.805 20.502 38.7863 20.4496 38.767C18.3109 37.9617 16.2805 36.561 14.8047 34.8081C14.7668 34.7644 14.7288 34.7207 14.6897 34.6757C14.1462 34.0408 13.6835 33.3532 13.2541 32.6372C13.2026 32.5563 13.1509 32.4756 13.099 32.3949C12.9956 32.2237 12.9956 32.2237 12.9956 32.1203Z" fill="#020202"/>
<path d="M32.6889 32.1203C34.4458 32.1203 36.2027 32.1203 38.0128 32.1203C37.9439 32.2925 37.8865 32.4279 37.7931 32.5821C37.7705 32.6195 37.7478 32.657 37.7244 32.6956C37.7002 32.7349 37.676 32.7743 37.651 32.8149C37.6257 32.856 37.6005 32.8971 37.5745 32.9394C37.1157 33.6782 36.5893 34.3542 36.0034 34.9971C35.9026 35.1083 35.8041 35.221 35.7062 35.3347C35.4129 35.6696 35.0998 35.9578 34.7522 36.2364C34.6551 36.3152 34.5592 36.3956 34.4651 36.4779C33.7415 37.1076 32.9148 37.6166 32.0686 38.0645C32.0377 38.0814 32.0067 38.0982 31.9747 38.1156C31.5062 38.37 31.0211 38.5723 30.5245 38.7655C30.4345 38.8007 30.4345 38.8007 30.3427 38.8367C30.2866 38.858 30.2305 38.8794 30.1727 38.9014C30.097 38.9303 30.097 38.9303 30.0197 38.9599C29.8977 38.9949 29.8977 38.9949 29.7944 38.9432C29.8294 38.8937 29.8644 38.8442 29.9006 38.7932C30.5124 37.9214 31.0112 37.0203 31.4484 36.0486C31.4672 36.0069 31.4859 35.9652 31.5053 35.9222C32.0297 34.7356 32.4345 33.3923 32.6889 32.1203Z" fill="#020202"/>
<path d="M21.2141 12.0653C21.1828 12.1073 21.1515 12.1493 21.1192 12.1927C20.5883 12.9148 20.1462 13.6831 19.7668 14.4946C19.7471 14.5365 19.7274 14.5784 19.7071 14.6216C19.4305 15.2164 19.1921 15.8215 18.9818 16.4426C18.9622 16.4998 18.9426 16.557 18.9224 16.6159C18.6982 17.2968 18.5463 17.9809 18.3712 18.6814C16.6314 18.6814 14.8916 18.6814 13.099 18.6814C13.4 18.0794 13.4 18.0794 13.5933 17.7962C13.6261 17.7477 13.6261 17.7477 13.6596 17.6981C14.0724 17.0939 14.5109 16.5275 15.0115 15.9936C15.0732 15.9228 15.1346 15.8517 15.1956 15.7804C15.5194 15.4087 15.8743 15.0692 16.252 14.753C16.2805 14.7291 16.3089 14.7051 16.3382 14.6803C16.8227 14.2732 17.3178 13.8999 17.8543 13.5642C17.8863 13.5442 17.9182 13.5243 17.951 13.5037C18.1749 13.3646 18.4014 13.2306 18.6297 13.099C18.687 13.0657 18.7444 13.0324 18.8035 12.9981C20.7533 11.9117 20.7533 11.9117 21.2141 12.0653Z" fill="#010101"/>
<path d="M29.7944 12.0136C30.14 12.112 30.4754 12.2249 30.8087 12.3592C30.8758 12.3862 30.8758 12.3862 30.9442 12.4138C31.3653 12.5861 31.7708 12.7813 32.172 12.9956C32.2058 13.0136 32.2396 13.0315 32.2745 13.0499C33.2458 13.5678 34.1411 14.212 34.9511 14.9572C35.0589 15.0561 35.1687 15.152 35.2798 15.2473C35.6333 15.556 35.9543 15.8925 36.2554 16.252C36.2988 16.3031 36.3421 16.3542 36.3868 16.4069C36.8743 16.9924 37.2927 17.6265 37.7027 18.2679C37.7318 18.3129 37.761 18.3579 37.7911 18.4042C37.8577 18.5263 37.8577 18.5263 37.8577 18.6814C36.135 18.6814 34.4122 18.6814 32.6372 18.6814C32.5178 18.2038 32.3984 17.7262 32.2754 17.2341C32.1983 16.9726 32.1211 16.7161 32.0331 16.4588C32.0009 16.3638 32.0009 16.3638 31.9681 16.2669C31.4862 14.8655 30.8488 13.5832 30.0112 12.3639C29.9344 12.2497 29.8633 12.1326 29.7944 12.0136Z" fill="#010101"/>
<path d="M20.1286 32.1203C21.6126 32.1203 23.0966 32.1203 24.6255 32.1203C24.6255 34.5595 24.6255 36.9987 24.6255 39.5118C23.7637 39.1886 23.1112 38.5832 22.558 37.8577C22.5177 37.8059 22.4774 37.7541 22.4358 37.7007C21.3826 36.3116 20.7195 34.561 20.2579 32.8924C20.2446 32.8447 20.2314 32.797 20.2178 32.7479C20.1583 32.5236 20.1286 32.3572 20.1286 32.1203Z" fill="#020202"/>
<path d="M26.3829 32.1203C27.8669 32.1203 29.3509 32.1203 30.8798 32.1203C30.8216 32.6444 30.8216 32.6444 30.7603 32.8456C30.7397 32.9138 30.7397 32.9138 30.7186 32.9834C30.7036 33.0312 30.6886 33.079 30.6731 33.1283C30.6491 33.2052 30.6491 33.2052 30.6246 33.2837C30.1099 34.914 29.4916 36.5705 28.3988 37.9094C28.3761 37.9381 28.3534 37.9668 28.33 37.9963C28.054 38.3446 27.7669 38.6641 27.4199 38.9432C27.3802 38.9758 27.3802 38.9758 27.3397 39.009C27.0387 39.2396 26.7456 39.3444 26.3829 39.5118C26.3829 37.0726 26.3829 34.6334 26.3829 32.1203Z" fill="#010101"/>
<path d="M24.6255 11.4967C24.6255 13.8676 24.6255 16.2386 24.6255 18.6814C23.1586 18.6814 21.6917 18.6814 20.1803 18.6814C20.2386 18.1567 20.2386 18.1567 20.3075 17.9276C20.3231 17.8759 20.3386 17.8242 20.3546 17.771C20.3717 17.7164 20.3888 17.6618 20.4065 17.6056C20.4246 17.5476 20.4427 17.4895 20.4613 17.4297C20.983 15.7944 21.6665 14.1404 22.8164 12.8406C22.8522 12.7974 22.888 12.7542 22.9249 12.7097C23.2744 12.2987 24.0458 11.4967 24.6255 11.4967Z" fill="black"/>
<path d="M26.3829 11.4967C27.3416 11.976 27.3416 11.976 27.6202 12.2365C27.6521 12.2652 27.6839 12.294 27.7168 12.3236C27.9914 12.5767 28.2288 12.85 28.4505 13.1507C28.4916 13.2047 28.5328 13.2587 28.5752 13.3143C28.9276 13.7839 29.2141 14.2842 29.4842 14.8047C29.5036 14.8418 29.523 14.8788 29.5429 14.917C30.0393 15.8789 30.4086 16.9222 30.7086 17.961C30.7212 18.0046 30.7338 18.0482 30.7468 18.0931C30.8053 18.3055 30.8281 18.4544 30.8281 18.6814C29.3612 18.6814 27.8943 18.6814 26.3829 18.6814C26.3829 16.3104 26.3829 13.9395 26.3829 11.4967Z" fill="black"/>
</svg>
