<svg width="38" height="37" viewBox="0 0 38 37" fill="none" xmlns="http://www.w3.org/2000/svg">
<g clip-path="url(#clip0_1_1935)">
<path d="M15.2089 -0.019116C15.5701 -0.0187417 15.9314 -0.0190916 16.2927 -0.0193163C16.8985 -0.0195769 17.5044 -0.019239 18.1103 -0.0185444C18.8039 -0.0177583 19.4974 -0.0180133 20.191 -0.0188084C20.7939 -0.0194711 21.3969 -0.0195535 21.9998 -0.0191786C22.3567 -0.0189569 22.7135 -0.0189127 23.0704 -0.0194007C29.5479 -0.0270271 29.5479 -0.027027 32.224 1.37335C32.2674 1.39589 32.3108 1.41843 32.3555 1.44166C32.9679 1.76341 33.5206 2.13146 34.0306 2.60186C34.0748 2.64249 34.119 2.68312 34.1645 2.72497C36.1185 4.54583 37.088 6.8325 37.4271 9.46709C37.4372 9.54452 37.4372 9.54452 37.4474 9.62352C37.5266 10.3515 37.5107 11.0838 37.511 11.815C37.5114 11.9723 37.5117 12.1296 37.5121 12.2868C37.5131 12.7126 37.5135 13.1383 37.5139 13.5641C37.5141 13.8309 37.5144 14.0978 37.5147 14.3647C37.5157 15.2022 37.5164 16.0398 37.5167 16.8773C37.5167 17.0201 37.5167 17.0201 37.5167 17.1657C37.5168 17.2134 37.5168 17.2611 37.5168 17.3102C37.5171 18.1279 37.5186 18.9455 37.5203 19.7632C37.5219 20.5098 37.5226 21.2563 37.5227 22.0029C37.5228 22.4473 37.5232 22.8918 37.5245 23.3362C37.5355 27.2921 37.3263 31.0588 34.4191 34.0464C32.4551 35.9899 29.7857 36.765 27.0883 36.9347C27.0395 36.9378 26.9906 36.9409 26.9403 36.9441C25.6011 37.0259 24.261 37.0215 22.9198 37.0197C22.5565 37.0193 22.1933 37.0197 21.83 37.0199C21.2207 37.0202 20.6114 37.0198 20.0021 37.0191C19.3046 37.0184 18.6071 37.0186 17.9096 37.0194C17.3033 37.0201 16.697 37.0201 16.0907 37.0198C15.7318 37.0196 15.3729 37.0195 15.0141 37.02C13.6927 37.0215 12.3741 37.0177 11.055 36.9347C10.9179 36.9261 10.9179 36.9261 10.7781 36.9173C8.34272 36.7458 5.85729 36.0363 4.04972 34.327C3.91686 34.2017 3.78106 34.0879 3.63842 33.9742C1.64472 32.2646 0.853298 29.395 0.643917 26.8831C0.628999 26.6603 0.617386 26.4374 0.606655 26.2144C0.603607 26.1516 0.60056 26.0887 0.59742 26.024C0.565213 25.335 0.545172 24.646 0.531002 23.9564C0.529495 23.884 0.527989 23.8116 0.526437 23.737C0.44713 19.7338 0.416227 15.7087 0.571651 11.7073C0.574819 11.6256 0.574819 11.6256 0.578051 11.5423C0.722959 7.93374 1.58196 4.99522 4.2572 2.47088C4.68242 2.08767 5.13067 1.79511 5.63024 1.51788C5.67277 1.49385 5.7153 1.46983 5.75911 1.44508C8.6253 -0.155845 12.0269 -0.0234669 15.2089 -0.019116ZM5.94556 5.60314C3.61258 8.03259 3.95652 11.8991 3.95605 15.0075C3.956 15.1996 3.95584 15.3917 3.95565 15.5838C3.95499 16.2592 3.95469 16.9346 3.95474 17.61C3.95479 18.2312 3.95403 18.8524 3.95288 19.4736C3.95193 20.0137 3.95155 20.5537 3.9516 21.0938C3.95162 21.4134 3.95143 21.7329 3.95065 22.0525C3.9477 23.3446 3.96268 24.6327 4.03382 25.9231C4.03818 26.0041 4.03818 26.0041 4.04263 26.0866C4.15696 28.1554 4.59975 29.9776 6.06384 31.5081C6.13161 31.584 6.13161 31.584 6.20075 31.6614C7.70165 33.2824 10.1715 33.5154 12.2435 33.5959C13.1946 33.6258 14.1466 33.6315 15.0982 33.6423C15.3482 33.6452 15.5982 33.6484 15.8482 33.6516C17.9851 33.6787 20.1208 33.6803 22.2577 33.6553C22.5649 33.6517 22.872 33.6483 23.1792 33.6456C24.4077 33.6345 25.6338 33.6173 26.86 33.5366C26.9459 33.531 27.0318 33.5253 27.1203 33.5195C29.0238 33.3804 30.6839 32.8616 32.0795 31.5081C32.1237 31.4692 32.168 31.4302 32.2136 31.3901C33.7771 29.9661 34.0544 27.6262 34.1513 25.6376C34.1986 24.5165 34.1871 23.3932 34.1873 22.2713C34.1873 22.065 34.1875 21.8587 34.1876 21.6523C34.1883 20.9281 34.1886 20.2038 34.1886 19.4796C34.1885 18.8117 34.1893 18.1438 34.1904 17.4759C34.1914 16.8966 34.1917 16.3173 34.1917 15.738C34.1917 15.3946 34.1919 15.0513 34.1927 14.7079C34.1954 13.4194 34.1903 12.1342 34.1095 10.8479C34.1008 10.7093 34.1008 10.7093 34.0919 10.568C33.9497 8.53803 33.3781 6.81219 31.9349 5.34795C31.8637 5.27529 31.8637 5.27529 31.791 5.20117C29.3829 2.92749 25.2465 3.38453 22.2049 3.38708C21.9085 3.38726 21.6122 3.38709 21.3159 3.38698C20.819 3.38685 20.3222 3.38701 19.8253 3.38736C19.2568 3.38775 18.6883 3.38763 18.1197 3.38723C17.6251 3.3869 17.1305 3.38686 16.6359 3.38704C16.3433 3.38715 16.0508 3.38718 15.7582 3.38693C11.055 3.38693 9 2.72497 5.94556 5.60314Z" fill="black"/>
<path d="M25.1953 11.1494C25.3749 11.3073 25.5485 11.4699 25.7212 11.6352C25.7788 11.6874 25.8364 11.7396 25.8957 11.7933C27.5945 13.3897 28.5427 15.7708 28.6274 18.0773C28.6889 20.6506 27.8755 23.0836 26.1015 24.9784C26.0476 25.0347 25.9936 25.0909 25.938 25.1489C25.8834 25.2081 25.8287 25.2674 25.7723 25.3284C24.799 26.351 23.5716 27.0555 22.2525 27.5337C22.1768 27.5612 22.101 27.5888 22.023 27.6172C19.6225 28.4225 16.9545 28.1466 14.7007 27.0368C13.7254 26.5348 12.8994 25.8613 12.1353 25.0766C12.0987 25.0433 12.0621 25.0099 12.0244 24.9756C10.5088 23.5601 9.62062 21.2205 9.52475 19.1757C9.44948 16.4901 10.1837 14.0096 12.0441 12.0225C12.0981 11.9663 12.152 11.91 12.2076 11.852C12.2623 11.7928 12.3169 11.7335 12.3733 11.6725C15.7124 8.16445 21.5625 8.11075 25.1953 11.1494ZM14.9537 13.9477C14.8986 13.9959 14.8436 14.044 14.7868 14.0937C13.6527 15.1531 12.9933 16.6953 12.9187 18.2329C12.8776 19.9555 13.4671 21.5015 14.6477 22.7472C14.701 22.8005 14.7542 22.8538 14.8091 22.9087C14.8594 22.959 14.9097 23.0093 14.9616 23.0611C16.1595 24.189 17.7266 24.7031 19.3557 24.6611C20.7863 24.5931 22.1257 23.9911 23.1919 23.0532C23.247 23.005 23.3021 22.9569 23.3588 22.9073C24.4975 21.8435 25.1322 20.2895 25.2267 18.75C25.2792 17.1306 24.6913 15.5929 23.6255 14.3813C23.5774 14.3263 23.5292 14.2712 23.4796 14.2145C22.4159 13.0758 20.8618 12.441 19.3224 12.3466C17.703 12.2941 16.1652 12.8819 14.9537 13.9477Z" fill="black"/>
<path d="M30.3114 6.77003C30.7798 7.15377 31.0957 7.63787 31.2133 8.23736C31.2811 8.98085 31.1233 9.60735 30.6428 10.1851C30.1133 10.6999 29.5651 10.8592 28.8479 10.8621C28.2632 10.8524 27.7277 10.6892 27.3109 10.2608C26.8649 9.67607 26.6198 9.09359 26.6733 8.34942C26.771 7.72073 27.0587 7.2069 27.5458 6.79656C28.3938 6.19427 29.4493 6.18999 30.3114 6.77003Z" fill="black"/>
</g>
<defs>
<clipPath id="clip0_1_1935">
<rect width="37" height="37" fill="white" transform="translate(0.5)"/>
</clipPath>
</defs>
</svg>
