<svg width="38" height="37" viewBox="0 0 38 37" fill="none" xmlns="http://www.w3.org/2000/svg">
<g clip-path="url(#clip0_1_1932)">
<path d="M3.08843 -0.0193733C3.14431 -0.0196484 3.20018 -0.0199234 3.25776 -0.0202067C3.44524 -0.0209523 3.63271 -0.0206699 3.82019 -0.0203917C3.95587 -0.0207135 4.09155 -0.0210975 4.22724 -0.0215385C4.6003 -0.022564 4.97336 -0.0226834 5.34643 -0.0226516C5.7487 -0.0227706 6.15098 -0.0237148 6.55326 -0.0245444C7.43299 -0.0261962 8.31272 -0.0267682 9.19246 -0.0271335C9.74178 -0.0273688 10.2911 -0.0278401 10.8404 -0.0283621C12.3613 -0.0297761 13.8823 -0.0309674 15.4032 -0.0311715C15.4518 -0.0311783 15.5005 -0.0311851 15.5506 -0.0311921C15.7477 -0.0312195 15.9448 -0.0312458 16.1419 -0.0312718C16.2903 -0.0312915 16.4387 -0.0313115 16.587 -0.0313315C16.6606 -0.031341 16.6606 -0.031341 16.7356 -0.0313508C18.2755 -0.0315607 19.8154 -0.0331569 21.3553 -0.0357775C23.0857 -0.0387223 24.8161 -0.0404316 26.5465 -0.0404547C27.4626 -0.040497 28.3787 -0.0411111 29.2948 -0.0432007C30.0748 -0.0449718 30.8549 -0.0454987 31.635 -0.0444113C32.0329 -0.0438931 32.4308 -0.0439557 32.8287 -0.0455972C33.1933 -0.0470867 33.5578 -0.0468958 33.9223 -0.0453894C34.0539 -0.0451372 34.1855 -0.0454904 34.3171 -0.0465243C35.2585 -0.0534411 36.078 0.0364386 36.7948 0.720383C37.2731 1.2734 37.5221 1.85708 37.5182 2.58843C37.5185 2.64431 37.5188 2.70018 37.519 2.75776C37.5198 2.94524 37.5195 3.13271 37.5192 3.32019C37.5196 3.45587 37.5199 3.59155 37.5204 3.72724C37.5214 4.1003 37.5215 4.47336 37.5215 4.84643C37.5216 5.2487 37.5226 5.65098 37.5234 6.05326C37.525 6.93299 37.5256 7.81272 37.526 8.69246C37.5262 9.24178 37.5267 9.7911 37.5272 10.3404C37.5286 11.8613 37.5298 13.3823 37.53 14.9032C37.53 14.9518 37.53 15.0005 37.53 15.0506C37.5301 15.2477 37.5301 15.4448 37.5301 15.6419C37.5301 15.7903 37.5302 15.9387 37.5302 16.087C37.5302 16.136 37.5302 16.1851 37.5302 16.2356C37.5304 17.7755 37.532 19.3154 37.5346 20.8553C37.5376 22.5857 37.5393 24.3161 37.5393 26.0465C37.5393 26.9626 37.54 27.8787 37.542 28.7948C37.5438 29.5748 37.5443 30.3549 37.5433 31.135C37.5427 31.5329 37.5428 31.9308 37.5444 32.3287C37.5459 32.6933 37.5457 33.0578 37.5442 33.4223C37.544 33.5539 37.5443 33.6855 37.5454 33.8171C37.5523 34.7585 37.4624 35.578 36.7785 36.2948C36.2254 36.7731 35.6418 37.0221 34.9104 37.0182C34.8545 37.0185 34.7987 37.0188 34.7411 37.019C34.5536 37.0198 34.3661 37.0195 34.1786 37.0192C34.043 37.0196 33.9073 37.0199 33.7716 37.0204C33.3985 37.0214 33.0255 37.0215 32.6524 37.0215C32.2501 37.0216 31.8479 37.0226 31.4456 37.0234C30.5658 37.025 29.6861 37.0256 28.8064 37.026C28.2571 37.0262 27.7077 37.0267 27.1584 37.0272C25.6375 37.0286 24.1166 37.0298 22.5956 37.03C22.547 37.03 22.4984 37.03 22.4482 37.03C22.2511 37.0301 22.054 37.0301 21.8569 37.0301C21.7085 37.0301 21.5602 37.0302 21.4118 37.0302C21.3383 37.0302 21.3383 37.0302 21.2633 37.0302C19.7234 37.0304 18.1835 37.032 16.6436 37.0346C14.9131 37.0376 13.1827 37.0393 11.4523 37.0393C10.5362 37.0393 9.62015 37.04 8.70408 37.042C7.92401 37.0438 7.14395 37.0443 6.36389 37.0433C5.96597 37.0427 5.56807 37.0428 5.17016 37.0444C4.80559 37.0459 4.44106 37.0457 4.07649 37.0442C3.9449 37.044 3.8133 37.0443 3.6817 37.0454C2.74037 37.0523 1.92081 36.9624 1.20401 36.2785C0.725726 35.7254 0.4767 35.1418 0.480627 34.4104C0.480352 34.3545 0.480077 34.2987 0.479793 34.2411C0.479048 34.0536 0.47933 33.8661 0.479608 33.6786C0.479286 33.543 0.478903 33.4073 0.478462 33.2716C0.477436 32.8985 0.477317 32.5255 0.477349 32.1524C0.477229 31.7501 0.476285 31.3479 0.475455 30.9456C0.473804 30.0658 0.473232 29.1861 0.472867 28.3064C0.472631 27.7571 0.47216 27.2077 0.471638 26.6584C0.470224 25.1375 0.469033 23.6166 0.468829 22.0956C0.468822 22.047 0.468815 21.9984 0.468808 21.9482C0.468781 21.7511 0.468754 21.554 0.468728 21.3569C0.468709 21.2085 0.468689 21.0602 0.468669 20.9118C0.468662 20.8628 0.468656 20.8138 0.468649 20.7633C0.46844 19.2234 0.466843 17.6835 0.464223 16.1436C0.461278 14.4131 0.459569 12.6827 0.459545 10.9523C0.459503 10.0362 0.458889 9.12015 0.456799 8.20408C0.455028 7.42401 0.454501 6.64395 0.455589 5.86388C0.456107 5.46597 0.456044 5.06807 0.454403 4.67016C0.452914 4.30559 0.453104 3.94106 0.454611 3.57649C0.454863 3.4449 0.45451 3.3133 0.453476 3.1817C0.446559 2.24037 0.536439 1.42081 1.22038 0.70401C1.7734 0.225726 2.35708 -0.0232999 3.08843 -0.0193733ZM9.31583 8.81583C8.93359 9.41661 8.78693 10.0284 8.91554 10.7326C9.09718 11.427 9.4964 11.918 10.1107 12.2846C10.7146 12.6111 11.5585 12.607 12.2144 12.4463C12.3895 12.3792 12.549 12.3043 12.7123 12.2123C12.7898 12.1691 12.8673 12.1259 12.9472 12.0813C13.4826 11.6554 13.8064 11.1568 13.8988 10.47C13.9309 9.74481 13.739 9.11276 13.2498 8.56741C12.6077 7.99678 11.9009 7.87957 11.0705 7.919C10.3442 7.97618 9.78994 8.25889 9.31583 8.81583ZM22.7572 14.4525C22.689 14.4815 22.6209 14.5105 22.5506 14.5403C21.8289 14.892 21.1454 15.4959 20.7338 16.1869C20.7338 16.2346 20.7338 16.2823 20.7338 16.3315C20.6861 16.3315 20.6384 16.3315 20.5893 16.3315C20.5893 15.7114 20.5893 15.0914 20.5893 14.4525C19.1346 14.4525 17.6798 14.4525 16.1811 14.4525C16.1811 18.9121 16.1811 23.3716 16.1811 27.9662C17.6358 27.9662 19.0905 27.9662 20.5893 27.9662C20.592 27.3799 20.5947 26.7936 20.5975 26.1895C20.5996 25.8173 20.6019 25.4452 20.6044 25.0731C20.6083 24.4828 20.612 23.8925 20.6143 23.3022C20.6161 22.8262 20.6191 22.3501 20.6227 21.874C20.6239 21.6927 20.6248 21.5114 20.6252 21.33C20.6259 21.0754 20.628 20.8208 20.6303 20.5662C20.6302 20.4918 20.6301 20.4174 20.63 20.3407C20.6407 19.5058 20.8542 18.9118 21.4271 18.3052C21.9112 17.8485 22.4274 17.6881 23.0869 17.6729C23.6526 17.69 24.1747 17.7602 24.6065 18.1595C25.3351 19.0395 25.3669 20.133 25.3736 21.2225C25.3743 21.296 25.3751 21.3694 25.3758 21.445C25.3781 21.6851 25.3799 21.9251 25.3817 22.1652C25.3831 22.3327 25.3847 22.5001 25.3862 22.6676C25.3902 23.1065 25.3938 23.5453 25.3973 23.9842C25.4015 24.5118 25.4063 25.0393 25.411 25.5669C25.4181 26.3667 25.4245 27.1664 25.4311 27.9662C26.8858 27.9662 28.3405 27.9662 29.8393 27.9662C29.8458 26.4129 29.8458 26.4129 29.8502 24.8595C29.8514 24.3034 29.8529 23.7473 29.8556 23.1912C29.858 22.7029 29.8593 22.2147 29.8598 21.7264C29.8602 21.5413 29.861 21.3561 29.8622 21.1709C29.8747 19.1237 29.7552 17.0481 28.2731 15.4724C27.3745 14.5665 26.1764 14.154 24.921 14.136C24.1527 14.1373 23.4739 14.1469 22.7572 14.4525ZM9.1713 14.4525C9.1713 18.9121 9.1713 23.3716 9.1713 27.9662C10.626 27.9662 12.0807 27.9662 13.5795 27.9662C13.5795 23.5067 13.5795 19.0472 13.5795 14.4525C12.1248 14.4525 10.6701 14.4525 9.1713 14.4525Z" fill="black"/>
</g>
<defs>
<clipPath id="clip0_1_1932">
<rect width="37" height="37" fill="white" transform="translate(0.5)"/>
</clipPath>
</defs>
</svg>
