<svg width="55" height="56" viewBox="0 0 55 56" fill="none" xmlns="http://www.w3.org/2000/svg">
<path d="M27.168 0C27.7186 0.00688188 28.2967 0.0137638 28.8747 0.0275275C29.1844 0.0344094 29.4941 0.0619369 29.8038 0.0894644C30.1823 0.123874 30.5677 0.158283 30.9462 0.206456C31.4555 0.268393 31.9647 0.350976 32.4671 0.447322C32.763 0.502377 33.0658 0.557432 33.3617 0.619369C33.7265 0.701952 34.0912 0.791416 34.4559 0.880881C35.2749 1.08734 36.0732 1.34885 36.8715 1.63101C37.9795 2.02327 39.053 2.49812 40.0922 3.04179C40.918 3.46847 41.7232 3.93644 42.5009 4.44569C43.3542 5.00313 44.1732 5.59497 44.9577 6.24187C45.5564 6.73736 46.1414 7.2535 46.6988 7.80405C47.215 8.31331 47.7173 8.83633 48.1991 9.38C48.5363 9.76539 48.8597 10.1645 49.1832 10.5706C49.9539 11.5478 50.6559 12.5801 51.2822 13.6605C51.9703 14.8442 52.5691 16.0692 53.0783 17.3355C53.4912 18.3815 53.8491 19.4551 54.1312 20.5493C54.3033 21.2168 54.4616 21.8913 54.5786 22.5794C54.668 23.0818 54.7369 23.5842 54.8057 24.0866C54.8607 24.5133 54.902 24.9399 54.9433 25.3666C54.9984 25.9516 55.0052 26.5365 55.0052 27.1284C55.0052 27.6858 55.0052 28.2501 54.9915 28.8076C54.9846 29.1379 54.9571 29.4682 54.9296 29.7917C54.902 30.1495 54.8607 30.5005 54.8194 30.8515C54.7781 31.2093 54.7231 31.5672 54.668 31.9319C54.5579 32.6683 54.3996 33.3978 54.2207 34.1204C54.0211 34.9255 53.7872 35.7238 53.5119 36.5084C53.1953 37.4305 52.8237 38.3321 52.4039 39.213C52.0598 39.9493 51.6882 40.665 51.2753 41.367C51 41.8349 50.7041 42.2892 50.415 42.7434C49.9884 43.4109 49.5135 44.044 49.018 44.6634C48.4262 45.4066 47.793 46.1155 47.1324 46.7968C46.6231 47.3129 46.0863 47.8084 45.5427 48.2833C44.9164 48.8338 44.2626 49.35 43.5882 49.8317C42.728 50.4511 41.8264 51.0223 40.9043 51.5453C40.2092 51.9375 39.4935 52.2885 38.7709 52.6189C38.1102 52.9217 37.4427 53.2038 36.7545 53.4378C35.8943 53.7337 35.0271 54.009 34.1463 54.2292C33.5407 54.3737 32.9351 54.5045 32.3294 54.6146C31.6275 54.7385 30.9255 54.8348 30.2167 54.9105C29.6799 54.9656 29.1363 55.0138 28.5995 55.0138C27.9113 55.0138 27.23 55.0138 26.5418 55.0138C25.9568 55.0138 25.3787 54.9587 24.8076 54.9036C24.3189 54.8555 23.8234 54.7798 23.3348 54.7109C22.9839 54.6628 22.626 54.6146 22.2819 54.5389C21.4423 54.3669 20.6096 54.1673 19.7838 53.9333C18.9304 53.6855 18.0908 53.3965 17.265 53.0662C15.9987 52.5638 14.7875 51.9582 13.6107 51.2769C12.7643 50.7814 11.9591 50.2377 11.1677 49.6665C10.4313 49.1297 9.72935 48.5517 9.05493 47.9392C8.41491 47.3611 7.80242 46.7486 7.21746 46.1155C6.59809 45.4342 6.01313 44.7322 5.46258 43.9959C4.9258 43.2801 4.42342 42.5369 3.96233 41.7661C3.45996 40.9265 2.99199 40.0732 2.57907 39.1854C2.00788 37.9811 1.54679 36.763 1.16829 35.5105C0.920541 34.6984 0.707203 33.8726 0.542037 33.0399C0.431927 32.4687 0.321817 31.8975 0.246117 31.3263C0.191062 30.8859 0.142888 30.4454 0.101597 30.0119C-0.0291587 28.6974 -0.00851302 27.3761 0.0258964 26.0548C0.0396601 25.5937 0.0947152 25.1326 0.136006 24.6715C0.163534 24.3687 0.197943 24.0659 0.239235 23.77C0.280526 23.481 0.321817 23.1988 0.376872 22.9098C0.452573 22.49 0.528274 22.0633 0.617738 21.6504C0.817313 20.7282 1.05818 19.8198 1.36098 18.9252C1.56056 18.3196 1.78078 17.7208 2.02164 17.129C2.33133 16.372 2.67542 15.6287 3.04704 14.9062C3.57695 13.8808 4.16879 12.8898 4.82945 11.9401C5.2286 11.362 5.65528 10.7908 6.09572 10.2402C6.56368 9.65528 7.05918 9.09785 7.57532 8.56106C8.02952 8.08621 8.49749 7.61824 8.98611 7.1778C9.83946 6.40703 10.7272 5.67755 11.67 5.02377C12.2068 4.65215 12.7505 4.28741 13.3079 3.9502C13.5832 3.78503 13.8516 3.62675 14.1338 3.47535C14.7325 3.1519 15.3312 2.83533 15.9437 2.5463C16.6663 2.20908 17.4026 1.90628 18.1528 1.63101C19.2401 1.22497 20.355 0.908408 21.4905 0.660661C22.1511 0.516141 22.8256 0.406031 23.4931 0.295921C23.8579 0.233984 24.2295 0.206456 24.5942 0.158283C25.4338 0.0344094 26.2803 0.0275275 27.168 0ZM0.266762 27.8097C0.273644 28.1744 0.273644 28.5392 0.29429 28.897C0.335581 29.537 0.376872 30.177 0.459455 30.8102C0.493864 31.0717 0.51451 31.3332 0.555801 31.5947C0.665911 32.2623 0.789785 32.9298 0.934305 33.5973C1.07194 34.2236 1.24399 34.8361 1.4298 35.4486C1.66378 36.2193 1.93218 36.9763 2.23498 37.7196C2.73736 38.9652 3.3292 40.1627 4.00362 41.3188C4.41654 42.0208 4.85698 42.7021 5.32494 43.3627C5.73786 43.9408 6.1783 44.5051 6.63938 45.0488C7.2037 45.7163 7.80242 46.3632 8.42867 46.9757C9.1031 47.6295 9.79817 48.2557 10.5345 48.8338C10.7823 49.0265 11.03 49.2123 11.2709 49.3981C11.6838 49.7147 12.1105 50.0106 12.5509 50.2928C12.7574 50.4235 12.957 50.5681 13.1634 50.6919C13.8034 51.0773 14.4503 51.4489 15.111 51.7861C15.6959 52.089 16.2947 52.3642 16.9003 52.6189C17.6504 52.9285 18.4074 53.2176 19.1782 53.4584C19.77 53.6443 20.3619 53.8163 20.9675 53.9677C21.6212 54.126 22.2819 54.2636 22.9426 54.3737C23.617 54.4907 24.2983 54.5802 24.9865 54.6352C25.1792 54.649 25.365 54.6765 25.5577 54.6834C25.9087 54.7041 26.2596 54.7109 26.6037 54.7316C27.3538 54.7729 28.1109 54.7454 28.861 54.7178C29.4666 54.6972 30.0722 54.6421 30.6778 54.5664C31.5105 54.4632 32.3363 54.3324 33.1553 54.1604C33.9329 53.9952 34.6968 53.8025 35.4538 53.5686C36.3209 53.307 37.1674 52.9974 38.0001 52.6464C38.8672 52.2816 39.7206 51.8756 40.5464 51.4214C41.2208 51.0498 41.8884 50.6575 42.5284 50.224C43.3542 49.6734 44.1594 49.0747 44.9233 48.4416C45.3706 48.0699 45.8042 47.6845 46.224 47.2854C47.2907 46.2669 48.2748 45.1795 49.1694 44.0027C49.658 43.3627 50.1191 42.7021 50.5458 42.0208C51.1445 41.0711 51.6813 40.087 52.1562 39.0684C52.5759 38.1669 52.9476 37.2447 53.271 36.3019C53.5463 35.5036 53.7872 34.6984 53.973 33.8726C54.0555 33.5216 54.1519 33.1707 54.207 32.8128C54.3171 32.1866 54.4272 31.5672 54.5098 30.9409C54.5992 30.239 54.6474 29.537 54.6887 28.8351C54.7162 28.3258 54.7231 27.8166 54.7162 27.3142C54.7162 26.5503 54.6749 25.7864 54.6061 25.0225C54.5786 24.7197 54.5579 24.4169 54.5166 24.1141C54.4341 23.5085 54.3377 22.9029 54.2276 22.2973C54.1106 21.671 53.9592 21.0448 53.794 20.4323C53.6151 19.751 53.4018 19.0766 53.1609 18.4159C52.865 17.5763 52.5278 16.7505 52.1493 15.9453C51.9359 15.498 51.7088 15.0644 51.4817 14.624C51.1927 14.0597 50.8692 13.516 50.5251 12.9861C50.1191 12.3461 49.6856 11.7267 49.2314 11.1142C48.6395 10.3228 48.0064 9.57958 47.332 8.85698C46.6575 8.14126 45.9487 7.46684 45.1986 6.81994C44.4691 6.19369 43.719 5.60873 42.9275 5.06506C42.1705 4.54204 41.3929 4.06719 40.5877 3.62675C39.872 3.23448 39.1356 2.87663 38.3855 2.5463C37.7317 2.25037 37.0573 1.99575 36.3829 1.76176C35.9768 1.62412 35.5708 1.49337 35.1579 1.36949C34.8138 1.26627 34.4628 1.16304 34.1119 1.08046C33.5131 0.942818 32.9144 0.818944 32.3157 0.701952C32.0404 0.646897 31.7583 0.598724 31.4761 0.564314C31.0632 0.509259 30.6503 0.47485 30.2374 0.419795C29.2464 0.302803 28.2485 0.268393 27.2506 0.275275C26.7827 0.275275 26.3147 0.309685 25.8467 0.323448C25.2755 0.344094 24.6837 0.406031 24.0918 0.481732C23.4656 0.557432 22.8393 0.653779 22.22 0.784534C21.5387 0.929054 20.8505 1.07357 20.1829 1.27315C19.8732 1.36261 19.5567 1.44519 19.2539 1.54842C18.6551 1.748 18.0564 1.95445 17.4715 2.18844C16.7902 2.46371 16.1157 2.74587 15.462 3.0762C14.8151 3.39965 14.175 3.73686 13.5557 4.11536C13.0533 4.41817 12.5578 4.72785 12.0692 5.06506C10.8855 5.87713 9.77752 6.78553 8.73836 7.76964C7.74049 8.71934 6.81831 9.73098 5.97872 10.8183C5.28365 11.713 4.65052 12.642 4.07932 13.6124C3.64577 14.3212 3.2535 15.0644 2.88876 15.8214C2.44832 16.7299 2.0767 17.6658 1.74637 18.6224C1.51238 19.283 1.31281 19.9506 1.13388 20.625C1.00312 21.1343 0.886132 21.6504 0.782903 22.1665C0.652148 22.8203 0.548919 23.481 0.466337 24.1416C0.390636 24.8023 0.321817 25.463 0.29429 26.1305C0.273644 26.6879 0.252998 27.2454 0.266762 27.8097Z" fill="#010101"/>
<path d="M0.268053 27.8097C0.254289 27.2454 0.274935 26.688 0.302462 26.1305C0.32999 25.463 0.398809 24.8023 0.474509 24.1417C0.55021 23.481 0.653439 22.8203 0.791076 22.1666C0.894305 21.6504 1.0113 21.1343 1.14205 20.625C1.32098 19.9506 1.52056 19.2831 1.75454 18.6224C2.09175 17.6727 2.46337 16.7368 2.89693 15.8215C3.26167 15.0645 3.65394 14.3281 4.07374 13.6055C4.64493 12.6352 5.28495 11.7061 5.97314 10.8115C6.81961 9.72412 7.7349 8.71248 8.73277 7.76278C9.77194 6.77179 10.8799 5.87027 12.0636 5.0582C12.5453 4.72787 13.0477 4.41819 13.5501 4.1085C14.1695 3.73 14.8095 3.39279 15.4564 3.06934C16.1102 2.74589 16.7846 2.45685 17.4659 2.18158C18.0508 1.94759 18.6496 1.74114 19.2483 1.54156C19.5511 1.43834 19.8677 1.35575 20.1774 1.26629C20.8518 1.0736 21.5331 0.929076 22.2144 0.777675C22.8338 0.646919 23.46 0.550573 24.0863 0.474872C24.6781 0.406053 25.2631 0.337235 25.8618 0.316589C26.3298 0.295943 26.7977 0.268416 27.2657 0.268416C28.2636 0.261534 29.2546 0.295943 30.2524 0.412935C30.6653 0.461108 31.0783 0.5024 31.4912 0.557455C31.7733 0.591864 32.0555 0.640037 32.3308 0.695092C32.9295 0.818966 33.5351 0.935958 34.1269 1.0736C34.4779 1.15618 34.8289 1.25941 35.173 1.36263C35.5859 1.48651 35.9919 1.61726 36.398 1.7549C37.0793 1.98889 37.7468 2.24352 38.4006 2.53944C39.1438 2.87665 39.8802 3.22762 40.6028 3.61989C41.408 4.06033 42.1925 4.53518 42.9426 5.0582C43.734 5.60187 44.4842 6.18683 45.2137 6.81308C45.9569 7.4531 46.6726 8.12752 47.347 8.85012C48.0215 9.56584 48.6546 10.316 49.2464 11.1074C49.7006 11.713 50.1342 12.3392 50.5402 12.9792C50.8774 13.516 51.2009 14.0597 51.4968 14.6171C51.7239 15.0576 51.951 15.4911 52.1644 15.9385C52.5497 16.7436 52.8801 17.5695 53.176 18.4091C53.41 19.0766 53.6302 19.7441 53.8091 20.4254C53.9743 21.0448 54.1257 21.6642 54.2427 22.2904C54.3528 22.896 54.4491 23.5016 54.5317 24.1072C54.573 24.4101 54.6005 24.7129 54.6212 25.0157C54.69 25.7795 54.7313 26.5434 54.7313 27.3073C54.7313 27.8166 54.7313 28.3258 54.7038 28.8282C54.6625 29.5302 54.6143 30.239 54.5248 30.9341C54.4423 31.5603 54.3322 32.1866 54.222 32.8059C54.1601 33.1638 54.0638 33.5148 53.9881 33.8658C53.7954 34.6847 53.5545 35.4968 53.2861 36.2951C52.9627 37.2379 52.5979 38.16 52.1712 39.0616C51.6964 40.0801 51.1596 41.0642 50.5609 42.0139C50.1342 42.6952 49.6731 43.3559 49.1845 43.9959C48.2899 45.1658 47.3057 46.26 46.2391 47.2785C45.8193 47.6777 45.3857 48.0631 44.9384 48.4347C44.1745 49.0747 43.3762 49.6666 42.5435 50.2171C41.9035 50.6438 41.2428 51.0429 40.5615 51.4145C39.7357 51.8688 38.8823 52.2748 38.0152 52.6395C37.1825 52.9905 36.336 53.3002 35.4689 53.5617C34.7119 53.7957 33.948 53.9884 33.1704 54.1535C32.3514 54.3256 31.5256 54.4563 30.6929 54.5596C30.0873 54.6353 29.4817 54.6834 28.8761 54.711C28.1259 54.7385 27.3758 54.7729 26.6188 54.7247C26.2678 54.7041 25.9168 54.6972 25.5728 54.6766C25.3801 54.6628 25.1942 54.6422 25.0016 54.6284C24.3202 54.5733 23.6389 54.4839 22.9576 54.3669C22.297 54.2499 21.6363 54.1191 20.9825 53.9608C20.3769 53.8163 19.7851 53.6443 19.1932 53.4516C18.4225 53.2038 17.6586 52.9217 16.9153 52.612C16.3028 52.3574 15.711 52.0821 15.126 51.7793C14.4654 51.4352 13.8185 51.0705 13.1785 50.6851C12.972 50.5612 12.7724 50.4167 12.566 50.2859C12.1255 50.0038 11.6989 49.7078 11.286 49.3913C11.0382 49.2055 10.7905 49.0197 10.5496 48.827C9.81323 48.2489 9.11816 47.6226 8.44373 46.9689C7.81748 46.3564 7.21876 45.7095 6.65444 45.0419C6.19336 44.4983 5.75292 43.9339 5.34 43.3559C4.87204 42.6952 4.43159 42.0139 4.01868 41.3119C3.33737 40.1558 2.75241 38.9583 2.25004 37.7127C1.94723 36.9695 1.67884 36.2125 1.44486 35.4417C1.25904 34.8292 1.087 34.2167 0.94936 33.5905C0.80484 32.9298 0.674084 32.2623 0.570856 31.5879C0.529565 31.3263 0.508919 31.0648 0.474509 30.8033C0.391927 30.1702 0.350636 29.5302 0.309344 28.8902C0.274935 28.5323 0.274935 28.1676 0.268053 27.8097ZM27.5754 9.8824C26.8665 9.86176 26.1646 9.8824 25.4626 9.97187C25.3594 9.98563 25.2562 9.99939 25.1461 10.0132C24.8983 10.0476 24.6506 10.0682 24.4028 10.1164C23.8729 10.2265 23.343 10.3366 22.8269 10.4742C22.3039 10.6188 21.7808 10.7908 21.2716 10.9766C20.5971 11.2244 19.9434 11.5203 19.3102 11.8575C18.3468 12.3599 17.4452 12.9517 16.5919 13.6193C16.0689 14.0253 15.5803 14.4657 15.1123 14.9337C14.314 15.7251 13.5914 16.5785 12.9514 17.5075C12.2219 18.5811 11.6025 19.7097 11.1208 20.9141C10.873 21.5403 10.6528 22.1734 10.4808 22.8203C10.3775 23.2126 10.2812 23.6118 10.1917 24.0109C10.1092 24.3963 10.0472 24.7886 10.0059 25.1808C9.99216 25.3253 9.97151 25.4699 9.95775 25.6144C9.93022 25.8965 9.88893 26.1787 9.88205 26.4609C9.86829 27.1628 9.87517 27.8579 9.88205 28.5598C9.88205 28.6562 9.88893 28.7594 9.89581 28.8557C9.93022 29.193 9.96463 29.5233 10.0059 29.8536C10.0472 30.1702 10.0885 30.4936 10.1504 30.8102C10.2468 31.2644 10.35 31.7186 10.467 32.1728C10.6391 32.8197 10.8593 33.4528 11.107 34.0791C11.3341 34.6434 11.5888 35.194 11.864 35.7307C12.1875 36.3501 12.5453 36.9488 12.9445 37.52C13.2473 37.9536 13.557 38.3803 13.9011 38.7794C14.3346 39.3024 14.7957 39.8048 15.2912 40.2659C16.0345 40.961 16.819 41.6079 17.6655 42.1722C18.1747 42.5094 18.7046 42.826 19.2414 43.115C19.847 43.4384 20.4664 43.7275 21.1064 43.9684C21.4436 44.0991 21.7808 44.2367 22.1249 44.3331C22.7168 44.5051 23.3086 44.691 23.9211 44.7942C24.2101 44.8424 24.4992 44.9043 24.7951 44.9456C25.0635 44.9869 25.3319 45.0144 25.6003 45.0557C25.9168 45.1039 26.2265 45.1245 26.5431 45.1314C26.8253 45.1383 27.1074 45.1452 27.3965 45.1452C27.9745 45.1452 28.5595 45.1314 29.1376 45.0832C29.3096 45.0695 29.4817 45.0626 29.6468 45.035C29.984 44.98 30.3213 44.9387 30.6585 44.8699C31.0714 44.7873 31.4843 44.7047 31.8903 44.6015C32.5854 44.4226 33.2667 44.2023 33.9342 43.9408C34.8151 43.5967 35.6616 43.1907 36.4668 42.7021C37.1894 42.2685 37.8844 41.7868 38.5451 41.2569C39.2195 40.7132 39.8527 40.1283 40.4445 39.4951C40.8987 38.9996 41.3323 38.4835 41.7314 37.9398C42.7362 36.5772 43.5138 35.0976 44.0988 33.5079C44.319 32.9023 44.5048 32.2829 44.6562 31.6567C44.725 31.3608 44.787 31.0648 44.8489 30.7689C44.8833 30.59 44.9177 30.4042 44.9453 30.2252C44.9865 29.9362 45.021 29.654 45.0554 29.365C45.0898 29.0416 45.1242 28.7181 45.1311 28.4015C45.1448 27.5895 45.1724 26.7774 45.0898 25.9654C45.0691 25.7589 45.0554 25.5456 45.0278 25.3391C44.9934 25.0914 44.9521 24.8436 44.9109 24.5959C44.8489 24.2518 44.8007 23.9077 44.725 23.5705C44.5186 22.7033 44.2571 21.8431 43.9267 21.0104C43.6652 20.3497 43.3693 19.7028 43.0183 19.0766C42.8256 18.7256 42.6192 18.3815 42.4058 18.0374C42.22 17.7415 42.0273 17.4525 41.8209 17.1634C41.4974 16.7092 41.1396 16.2757 40.768 15.849C40.1692 15.1677 39.5223 14.5414 38.8273 13.9565C38.4419 13.6261 38.029 13.3233 37.616 13.0274C37.1412 12.6833 36.6388 12.3805 36.1296 12.0915C35.6409 11.8093 35.1248 11.5616 34.6087 11.3345C33.8998 11.0179 33.1635 10.7633 32.4202 10.5362C31.911 10.3848 31.3948 10.2471 30.8718 10.1646C30.5415 10.1095 30.2111 10.0544 29.8808 10.0063C29.7156 9.97875 29.5574 9.96498 29.3922 9.95122C29.11 9.92369 28.8279 9.88928 28.5457 9.87552C28.2223 9.87552 27.8988 9.8824 27.5754 9.8824ZM31.2916 8.18946C31.2159 8.15505 31.209 8.08623 31.1884 8.03806C30.9544 7.45998 30.7273 6.87502 30.4933 6.29006C30.1079 5.31972 29.7225 4.35625 29.3371 3.38591C29.2959 3.28956 29.2614 3.19321 29.2202 3.08999C28.8279 3.0487 28.4494 3.0487 28.0502 3.03493C27.2244 4.69346 26.3986 6.34512 25.5659 8.02429C25.9788 8.0587 26.371 8.07247 26.7702 8.07247C26.956 7.72149 27.0936 7.35675 27.2726 7.02642C27.3001 7.01954 27.3139 7.01266 27.3276 7.01266C27.3689 7.01266 27.4102 7.01266 27.4446 7.01266C28.1603 7.04707 28.8829 7.08148 29.5987 7.11589C29.6055 7.11589 29.6124 7.12277 29.6193 7.12277C29.6262 7.12277 29.6331 7.12965 29.6468 7.13653C29.7913 7.48751 29.8946 7.86601 30.0597 8.22387C30.1286 8.23075 30.1974 8.23075 30.2593 8.23763C30.5484 8.2514 30.8374 8.25828 31.1264 8.27892C31.1677 8.27892 31.2228 8.28581 31.2503 8.31333C31.2985 8.35462 31.3467 8.37527 31.4086 8.38903C31.6907 8.47162 31.9798 8.5542 32.2619 8.63678C32.2895 8.64366 32.3239 8.64366 32.3652 8.65055C32.3858 8.60237 32.4065 8.56108 32.4133 8.51979C32.5166 8.16881 32.6198 7.81096 32.723 7.45998C32.8813 6.92319 33.0396 6.38641 33.1979 5.84962C33.2048 5.82209 33.1979 5.7808 33.2667 5.77392C33.4319 6.16619 33.6039 6.56534 33.7691 6.96449C33.9411 7.37052 34.1132 7.77655 34.2852 8.18258C34.4573 8.58173 34.6293 8.98088 34.7945 9.37314C35.0216 9.46949 35.579 9.62777 35.7304 9.64154C35.7442 9.59336 35.7648 9.54519 35.7786 9.49702C35.9025 9.07034 36.0332 8.63678 36.1571 8.21011C36.4805 7.109 36.804 6.0079 37.1274 4.9068C37.1412 4.86551 37.1412 4.82422 37.1481 4.76917C36.7765 4.65906 36.4255 4.54206 36.0539 4.45948C36.0332 4.50077 36.0195 4.5283 36.0126 4.56271C35.9369 4.8311 35.8543 5.09261 35.7786 5.36101C35.5928 6.00102 35.407 6.64104 35.2212 7.27417C35.2143 7.3017 35.1936 7.32234 35.1661 7.37052C35.1248 7.28793 35.0973 7.23288 35.0698 7.17094C34.6087 6.07672 34.1407 4.98939 33.6796 3.89517C33.659 3.84011 33.6314 3.78506 33.6108 3.74377C33.2736 3.61989 32.7919 3.48914 32.668 3.48225C32.551 3.86764 32.4409 4.25991 32.3239 4.65217C32.2069 5.04444 32.0968 5.43671 31.9798 5.82897C31.8628 6.22812 31.7458 6.62727 31.6288 7.02642C31.5256 7.40493 31.4155 7.79719 31.2916 8.18946ZM40.7748 12.7246C41.0914 12.3874 41.3804 12.0158 41.7039 11.6717C41.9792 11.9126 42.2476 12.1465 42.516 12.3805C42.4609 12.9655 42.3852 13.5298 42.337 14.1079C42.6467 14.3625 42.9289 14.6378 43.2454 14.8786C43.2523 14.8855 43.2661 14.8786 43.2936 14.8718C43.328 14.5552 43.3624 14.2386 43.3968 13.9152C43.4312 13.5986 43.4519 13.2752 43.5069 12.9448C43.5758 12.9586 43.6377 12.9724 43.6928 12.9861C43.9818 13.0481 44.2708 13.0412 44.553 12.9448C44.8489 12.8485 45.0898 12.6764 45.3031 12.4493C45.8261 11.8919 45.9431 11.1831 45.6197 10.488C45.4683 10.1577 45.2481 9.8824 44.9797 9.64154C44.4291 9.15292 43.8648 8.67119 43.3074 8.18946C43.2798 8.16193 43.2454 8.14129 43.2041 8.11376C43.156 8.16881 43.1147 8.21699 43.0734 8.26516C42.5228 8.89829 41.9792 9.53143 41.4286 10.1646C40.9606 10.7082 40.4858 11.2519 40.0178 11.7956C39.9697 11.8506 39.9146 11.8988 39.894 11.9676C40.0522 12.1328 40.6441 12.6489 40.7748 12.7246ZM15.2155 11.9057C15.2017 11.8644 15.2017 11.8506 15.188 11.8437C14.1213 10.6256 13.0615 9.41443 11.9948 8.19634C11.9673 8.16193 11.9329 8.12752 11.8984 8.09311C11.8916 8.08623 11.8847 8.08623 11.8847 8.08623C11.8778 8.08623 11.8709 8.08623 11.8572 8.08623C11.8434 8.09311 11.8227 8.1 11.809 8.11376C11.5475 8.34086 11.2928 8.56796 11.0382 8.79507C11.0176 8.80883 11.0107 8.83636 10.9969 8.857C11.0244 8.89141 11.0451 8.91206 11.0657 8.93958C11.4305 9.35938 11.7952 9.77229 12.16 10.1921C12.2081 10.2471 12.2701 10.2884 12.2769 10.371C12.1668 10.4674 12.0498 10.5706 11.9397 10.6669C11.5199 11.0386 11.1001 11.4102 10.6735 11.7749C10.6322 11.8093 10.6046 11.8575 10.5358 11.8437C10.5152 11.8162 10.4877 11.7887 10.4601 11.7612C10.1092 11.362 9.75818 10.956 9.40032 10.5568C9.34526 10.4949 9.29709 10.4192 9.22827 10.3848C8.88418 10.6463 8.46438 11.0248 8.37492 11.1556C8.3818 11.1693 8.39556 11.19 8.40244 11.2037C9.49666 12.4493 10.584 13.695 11.6782 14.9337C11.6851 14.9406 11.692 14.9406 11.692 14.9406C11.6989 14.9406 11.7057 14.9406 11.7126 14.9406C11.864 14.8442 12.4696 14.3075 12.5797 14.1767C12.5385 14.1285 12.4972 14.0803 12.4559 14.0322C12.0705 13.5986 11.692 13.1582 11.3066 12.7246C11.2791 12.6902 11.2584 12.6489 11.2309 12.6076C11.7952 12.1121 12.3526 11.6235 12.9101 11.1418C12.9238 11.128 12.9445 11.128 12.972 11.1143C13.1372 11.2725 13.2748 11.4584 13.4331 11.6304C13.5845 11.7956 13.729 11.9676 13.8804 12.1328C14.0318 12.3048 14.1832 12.4769 14.3484 12.6627C14.6443 12.4081 14.9265 12.1603 15.2155 11.9057ZM18.8629 8.85012C18.8147 8.87077 18.7597 8.89141 18.7115 8.91894C18.4018 9.0841 18.099 9.24927 17.7893 9.41443C17.404 9.62089 17.0254 9.82735 16.6401 10.0338C16.5781 10.0682 16.5093 10.0957 16.4474 10.1233C16.3785 10.0407 16.3441 9.9581 16.3028 9.87552C16.2547 9.78606 16.2065 9.70347 16.1583 9.61401C16.117 9.53143 16.0689 9.44884 16.0276 9.36626C15.9863 9.2768 15.9243 9.2011 15.8968 9.09787C16.0551 8.98088 16.234 8.90518 16.3992 8.81571C16.5712 8.71937 16.7433 8.62302 16.9222 8.53355C17.0874 8.44409 17.2594 8.35462 17.4246 8.26516C17.5966 8.16881 17.7756 8.09311 17.9407 7.983C17.8994 7.8316 17.6311 7.33611 17.5141 7.18471C16.8259 7.54256 16.1514 7.92107 15.4633 8.27892C15.36 8.15505 15.0159 7.51504 14.9402 7.31546C14.9746 7.29482 15.0159 7.27417 15.0572 7.24664C15.7523 6.87502 16.4543 6.49652 17.1493 6.1249C17.1906 6.10425 17.2526 6.09049 17.2663 6.02855C17.108 5.67757 16.936 5.36789 16.819 5.23025C16.7846 5.2509 16.7433 5.27154 16.702 5.29219C16.179 5.57435 15.656 5.84962 15.1329 6.13178C14.6099 6.41393 14.0869 6.68921 13.5639 6.97137C13.5226 6.99201 13.495 7.01954 13.4606 7.04707C13.5776 7.31546 15.7661 11.3827 15.8693 11.5203C15.9175 11.4928 15.9725 11.4721 16.0207 11.4446C16.3854 11.2519 16.7502 11.0523 17.1218 10.8527C17.8237 10.4742 18.5257 10.0957 19.2277 9.71724C19.2621 9.69659 19.2896 9.67595 19.3171 9.6553C19.1726 9.3525 18.9661 8.96711 18.8629 8.85012ZM22.4071 7.30858C22.531 7.28105 22.6342 7.26041 22.7374 7.23976C23.0333 7.17782 23.3361 7.12965 23.6321 7.06083C24.0312 6.96449 24.4028 6.79932 24.7194 6.52404C24.9052 6.35888 25.0497 6.16619 25.1461 5.93909C25.3388 5.49176 25.3181 5.03756 25.1598 4.59024C25.1048 4.42507 25.0291 4.27367 24.9259 4.13603C24.685 3.8057 24.3547 3.61301 23.9693 3.5029C23.5701 3.39279 23.171 3.39967 22.7718 3.47537C22.1662 3.58548 21.5675 3.70247 20.9619 3.81947C20.8311 3.84699 20.6866 3.84699 20.5696 3.90893C20.5627 3.92958 20.5559 3.94334 20.5627 3.9571C20.8587 5.52617 21.1546 7.08836 21.4505 8.65743C21.4643 8.72625 21.478 8.80195 21.4987 8.87077C21.4987 8.87765 21.5056 8.88453 21.5124 8.88453C21.5193 8.89141 21.5193 8.89141 21.5262 8.89829C21.9391 8.84324 22.5103 8.73313 22.6548 8.66431C22.586 8.21699 22.4828 7.77655 22.4071 7.30858ZM47.1681 11.6304C47.1406 11.6786 47.1268 11.6992 47.1131 11.7199C47.0236 11.9401 46.9341 12.1603 46.8447 12.3805C46.4868 13.2614 46.1289 14.1354 45.7711 15.0163C45.7298 15.1126 45.6816 15.1883 45.5922 15.2434C45.2274 15.5118 44.8627 15.7871 44.4979 16.0554C44.4222 16.1174 44.3397 16.1724 44.2571 16.2413C44.3259 16.3651 44.4154 16.4684 44.4911 16.5716C44.5668 16.6748 44.6425 16.7712 44.7182 16.8744C44.8007 16.9776 44.8558 17.0946 44.9659 17.1841C45.0141 17.1497 45.0485 17.129 45.0898 17.1015C45.4889 16.8056 45.8812 16.5097 46.2803 16.2137C46.3698 16.1449 46.4593 16.1036 46.5694 16.0967C46.6244 16.0967 46.6726 16.0899 46.7277 16.083C47.0786 16.0486 47.4227 16.021 47.7737 15.9866C48.1591 15.9522 48.5514 15.9109 48.9368 15.8696C49.3153 15.8283 49.7006 15.7939 50.0791 15.7526C50.1204 15.7458 50.1686 15.732 50.2237 15.7182C49.9897 15.4017 49.7763 15.0989 49.5424 14.8029C49.2464 14.8305 48.9574 14.858 48.6684 14.8924C48.3862 14.9199 48.104 14.9543 47.8219 14.975C47.5329 15.0025 47.2507 15.0507 46.9617 15.0507C46.9341 14.975 46.9754 14.9199 46.9961 14.8718C47.2782 14.1767 47.5673 13.4816 47.8494 12.7866C47.8701 12.7315 47.8907 12.6764 47.9182 12.6145C47.6636 12.2911 47.4227 11.9745 47.1681 11.6304ZM9.96463 17.3286C10.1573 17.1084 10.5702 16.5303 10.6528 16.372C10.4945 16.255 10.3363 16.138 10.178 16.021C10.0266 15.9109 9.86829 15.7939 9.71688 15.6838C9.5586 15.5668 9.40032 15.4498 9.23515 15.3329C9.07687 15.2159 8.91858 15.0989 8.75342 14.9819C8.59514 14.8649 8.42997 14.7479 8.27169 14.6309C8.12029 14.5208 7.962 14.4107 7.8106 14.2937C7.65232 14.1767 7.48715 14.0735 7.33575 13.9289C7.40457 13.8326 7.46651 13.75 7.52844 13.6606C7.59038 13.578 7.65232 13.4885 7.71425 13.4059C7.78307 13.3165 7.84501 13.227 7.91383 13.1375C7.97577 13.0549 8.0377 12.9655 8.09964 12.8829C8.16158 12.8003 8.2304 12.7246 8.27169 12.6283C8.15469 12.5113 7.64544 12.1397 7.51468 12.0777C7.45274 12.1121 7.41833 12.1809 7.37704 12.2429C7.03295 12.7177 6.68197 13.1926 6.33788 13.6674C5.88367 14.2937 5.42947 14.9131 4.96838 15.5393C4.94085 15.5737 4.92021 15.615 4.89956 15.6494C5.10602 15.8283 5.5327 16.1311 5.67033 16.2C5.77356 16.0623 5.88367 15.9178 5.9869 15.7733C6.09013 15.6288 6.19336 15.4843 6.30347 15.3397C6.4067 15.2021 6.50304 15.0438 6.6338 14.9062C7.75555 15.7114 8.84977 16.5234 9.96463 17.3286ZM42.2132 7.40493C42.165 7.3774 42.1306 7.34987 42.0893 7.32923C41.4906 6.99889 40.8918 6.66856 40.2931 6.33823C39.6806 6.00102 39.0681 5.66381 38.4625 5.3266C38.4212 5.30595 38.3799 5.29219 38.3455 5.27842C38.201 5.478 37.9601 5.93909 37.8982 6.11113C38.0496 6.2006 38.201 6.28318 38.3593 6.37264C38.5176 6.46211 38.6759 6.53781 38.8273 6.62727C38.9787 6.71674 39.1369 6.79244 39.3021 6.90255C38.9718 7.51504 38.6346 8.10688 38.3042 8.7056C37.9739 9.30432 37.6436 9.90305 37.3064 10.5155C37.4302 10.5912 37.5472 10.6532 37.6573 10.7151C37.7675 10.777 37.8776 10.839 37.9877 10.894C38.1047 10.9491 38.2079 11.0386 38.3386 11.073C38.3593 11.0454 38.3731 11.0248 38.3868 11.0041C38.6759 10.488 38.958 9.96498 39.2471 9.44884C39.5912 8.82947 39.9284 8.21699 40.2725 7.59762C40.2931 7.55633 40.3206 7.52192 40.355 7.48063C40.5959 7.61138 40.823 7.73526 41.057 7.86601C41.291 7.99677 41.525 8.13441 41.7727 8.2514C41.9241 8.01053 42.0411 7.76967 42.1719 7.53568C42.1856 7.48751 42.1925 7.44622 42.2132 7.40493ZM24.0037 47.368C23.7559 47.3267 23.2673 47.2992 23.1297 47.3198C23.1022 47.485 23.0953 47.657 23.0815 47.8291C23.0471 48.3728 23.0127 48.9233 22.9783 49.467C22.9439 49.99 22.9095 50.5199 22.8751 51.0429C22.8751 51.0773 22.8819 51.1186 22.8888 51.1599C23.0402 51.1737 23.1847 51.1874 23.3293 51.1943C23.4738 51.2012 23.6114 51.2287 23.7628 51.1943C23.7835 50.9259 23.7972 50.6713 23.8179 50.4167C23.8385 50.162 23.8316 49.9074 23.8798 49.6528C23.9073 49.6459 23.928 49.639 23.9486 49.639C24.4785 49.6734 25.0153 49.7078 25.5452 49.7423C25.5659 49.7423 25.5934 49.756 25.6209 49.7698C25.6072 50.0313 25.5934 50.2859 25.5728 50.5474C25.559 50.8021 25.5246 51.0567 25.5383 51.3113C25.7242 51.3595 26.2472 51.3939 26.4123 51.3664C26.4192 51.332 26.4261 51.2907 26.4261 51.2563C26.4605 50.747 26.488 50.2446 26.5225 49.7354C26.5431 49.4601 26.5569 49.1848 26.5775 48.9095C26.605 48.4829 26.6326 48.0562 26.6532 47.6295C26.6532 47.602 26.6463 47.5676 26.6394 47.5263C26.3504 47.5263 26.0682 47.485 25.7792 47.485C25.7654 47.657 25.7517 47.8222 25.7379 47.9805C25.7242 48.1525 25.7242 48.3246 25.7035 48.4966C25.6897 48.6618 25.7035 48.827 25.6553 49.0059C25.4626 48.9921 25.2699 48.9784 25.0841 48.9715C24.8846 48.9577 24.6919 48.944 24.4923 48.9302C24.3065 48.9164 24.1138 48.9233 23.9142 48.8751C23.9417 48.3659 23.983 47.8773 24.0037 47.368ZM32.5716 47.2235C32.2413 47.251 31.9179 47.2785 31.5944 47.3061C31.2778 47.3336 30.9613 47.3611 30.6516 47.3886C30.335 47.4231 30.0116 47.4299 29.6812 47.485C29.7913 48.7719 29.8877 50.0451 30.0116 51.3044C30.0804 51.3457 30.1423 51.3251 30.1974 51.3182C30.8512 51.2631 31.4981 51.2081 32.1518 51.153C32.3927 51.1324 32.6404 51.1117 32.8813 51.0842C32.9157 51.0773 32.9639 51.0911 32.9983 51.0292C32.9845 50.8227 32.9639 50.6025 32.9433 50.3685C32.8469 50.3616 32.7506 50.3685 32.6611 50.3754C32.0968 50.4236 31.5325 50.4786 30.9681 50.5268C30.9337 50.5268 30.8925 50.5268 30.8443 50.5268C30.8099 50.2377 30.7823 49.9556 30.7755 49.6528C30.975 49.6046 31.1677 49.6184 31.3673 49.5908C31.56 49.5633 31.7596 49.5564 31.9591 49.5427C32.1518 49.5289 32.3514 49.5289 32.551 49.4807C32.5579 49.2536 32.5235 49.0334 32.4959 48.7994C32.1931 48.8132 31.8972 48.8476 31.6013 48.8683C31.3054 48.8889 31.0163 48.9371 30.7204 48.9371C30.6585 48.6618 30.6378 48.2695 30.6722 48.1112C30.9957 48.0768 31.3191 48.0562 31.6495 48.0218C31.9798 47.9943 32.317 47.9805 32.6473 47.9323C32.6542 47.7603 32.6198 47.3749 32.5716 47.2235ZM20.3012 47.5401C20.1498 47.2372 19.9365 47.0101 19.6612 46.8381C19.1726 46.5422 18.6427 46.4045 18.0715 46.4871C16.7433 46.6798 16.1721 47.9117 16.4061 48.9164C16.5644 49.6046 17.0048 50.0588 17.6517 50.3272C17.865 50.4167 18.0921 50.4649 18.3192 50.4924C18.7941 50.5406 19.2345 50.4511 19.6406 50.1827C19.6681 50.162 19.6956 50.1276 19.73 50.1001C19.6543 49.99 19.5855 49.8868 19.5167 49.7835C19.441 49.6872 19.3928 49.5702 19.2827 49.4876C19.2414 49.5083 19.2139 49.5289 19.1795 49.5496C18.7597 49.8042 18.3261 49.7973 17.8994 49.584C17.5898 49.4257 17.3902 49.1711 17.3076 48.8338C17.2181 48.4691 17.287 48.125 17.4797 47.8084C17.6861 47.4712 17.9958 47.2785 18.3881 47.2579C18.8836 47.2304 19.2896 47.4162 19.5717 47.836C19.5924 47.8704 19.6199 47.8979 19.6474 47.9323C19.8677 47.7947 20.081 47.6708 20.3012 47.5401ZM38.4763 47.8704C38.1666 47.9392 37.8913 48.0011 37.6023 48.0631C37.3132 48.125 37.0311 48.2076 36.7421 48.2558C36.6595 48.0493 36.5149 47.4093 36.5218 47.2648C36.5425 47.2579 36.57 47.251 36.5906 47.2441C37.1756 47.1134 37.7606 46.9826 38.3455 46.845C38.3868 46.8381 38.4281 46.8175 38.4694 46.7968C38.4143 46.5697 38.3868 46.3495 38.3111 46.1362C38.2836 46.1362 38.2629 46.1224 38.2423 46.1293C37.3408 46.3357 36.4461 46.5353 35.5446 46.7418C35.5171 46.7486 35.4964 46.7624 35.462 46.7762C35.7373 48.008 36.0126 49.233 36.2947 50.458C36.3016 50.4786 36.3154 50.4993 36.336 50.5337C36.6182 50.4717 36.8866 50.4029 37.1618 50.341C37.1825 50.2584 37.155 50.1896 37.1412 50.1208C37.0655 49.7767 36.9829 49.4257 36.9003 49.0816C36.8935 49.0472 36.8935 49.0059 36.8935 48.9646C36.9623 48.944 37.0173 48.9302 37.0724 48.9164C37.5266 48.8132 37.9877 48.71 38.4419 48.6067C38.4969 48.593 38.5589 48.593 38.6139 48.5242C38.5795 48.3315 38.5313 48.1112 38.4763 47.8704Z" fill="#F5F5F5"/>
<path d="M27.5675 9.88245C27.8909 9.88245 28.2144 9.87557 28.5378 9.88245C28.82 9.89621 29.1021 9.93062 29.3843 9.95815C29.5494 9.97191 29.7146 9.99256 29.8729 10.0132C30.2032 10.0614 30.5336 10.1164 30.8639 10.1715C31.3869 10.261 31.9031 10.3917 32.4123 10.5431C33.1556 10.7633 33.8919 11.018 34.6008 11.3414C35.1169 11.5754 35.6262 11.8163 36.1216 12.0984C36.6309 12.3875 37.1333 12.6971 37.6081 13.0344C38.021 13.3303 38.4271 13.6331 38.8193 13.9634C39.5075 14.5484 40.1613 15.1746 40.76 15.8559C41.1317 16.2757 41.4826 16.7093 41.813 17.1704C42.0125 17.4525 42.2121 17.7416 42.3979 18.0444C42.6113 18.3816 42.8177 18.7326 43.0104 19.0835C43.3545 19.7029 43.6573 20.3498 43.9188 21.0173C44.2491 21.85 44.5107 22.7034 44.7171 23.5774C44.7997 23.9146 44.8479 24.2587 44.9029 24.6028C44.9442 24.8505 44.9855 25.0983 45.0199 25.346C45.0474 25.5525 45.0612 25.7658 45.0819 25.9723C45.1576 26.7844 45.1369 27.5964 45.1231 28.4085C45.1163 28.7319 45.0819 29.0554 45.0474 29.3719C45.0199 29.661 44.9786 29.95 44.9373 30.2322C44.9098 30.4111 44.8823 30.5969 44.841 30.7758C44.7791 31.0718 44.724 31.3677 44.6483 31.6636C44.4969 32.2899 44.3111 32.9092 44.0909 33.5148C43.5128 35.1046 42.7283 36.5842 41.7235 37.9468C41.3244 38.4904 40.8977 39.0066 40.4366 39.5021C39.8516 40.1352 39.2185 40.7271 38.5372 41.2638C37.8765 41.7937 37.1815 42.2686 36.4589 42.709C35.6468 43.1976 34.8003 43.6037 33.9263 43.9478C33.2588 44.2093 32.5775 44.4295 31.8824 44.6084C31.4764 44.7117 31.0635 44.7942 30.6506 44.8768C30.3133 44.9456 29.9761 44.9801 29.6389 45.042C29.4737 45.0695 29.3017 45.0764 29.1297 45.0902C28.5516 45.1383 27.9735 45.1521 27.3885 45.1521C27.1064 45.1521 26.8242 45.1452 26.5352 45.1383C26.2186 45.1315 25.9021 45.1039 25.5924 45.0626C25.324 45.0213 25.0556 45.0007 24.7872 44.9525C24.4981 44.9044 24.2022 44.8493 23.9132 44.8011C23.3007 44.6979 22.7157 44.5121 22.117 44.34C21.7729 44.2368 21.4357 44.0992 21.0985 43.9753C20.4585 43.7344 19.8391 43.4454 19.2335 43.1219C18.6898 42.8329 18.1668 42.5163 17.6576 42.1791C16.8111 41.6148 16.0266 40.9679 15.2833 40.2728C14.7878 39.8049 14.3267 39.3025 13.8932 38.7864C13.556 38.3803 13.2394 37.9605 12.9366 37.527C12.5374 36.9558 12.1727 36.3571 11.8561 35.7377C11.574 35.2009 11.3193 34.6503 11.0991 34.086C10.8514 33.4598 10.6312 32.8266 10.4591 32.1798C10.3421 31.7255 10.232 31.2713 10.1425 30.8171C10.0806 30.5006 10.0393 30.184 9.99803 29.8606C9.95673 29.5302 9.92233 29.193 9.88792 28.8627C9.87415 28.7663 9.87415 28.6631 9.87415 28.5668C9.87415 27.8648 9.86727 27.1697 9.87415 26.4678C9.88103 26.1856 9.92232 25.9035 9.94985 25.6213C9.96362 25.4768 9.98426 25.3323 9.99803 25.1878C10.0393 24.7955 10.1013 24.4032 10.1838 24.0178C10.2664 23.6187 10.3628 23.2195 10.4729 22.8273C10.6449 22.1804 10.8651 21.5472 11.1129 20.921C11.5946 19.7167 12.214 18.588 12.9435 17.5145C13.5766 16.5854 14.3061 15.7321 15.1044 14.9406C15.5724 14.4795 16.061 14.0322 16.584 13.6262C17.4373 12.9587 18.3389 12.3668 19.3023 11.8644C19.9423 11.5272 20.5892 11.2313 21.2637 10.9836C21.7729 10.7977 22.2959 10.6257 22.819 10.4812C23.3351 10.3367 23.865 10.2334 24.3949 10.1233C24.6358 10.0751 24.8904 10.0545 25.1382 10.0201C25.2414 10.0063 25.3446 9.99256 25.4547 9.9788C26.1567 9.88245 26.8586 9.86869 27.5675 9.88245ZM20.5548 22.3111C20.5342 22.318 20.5204 22.3249 20.5135 22.3318C20.4654 22.3318 20.4241 22.3387 20.3759 22.3387C19.9492 22.3387 19.5157 22.3524 19.0959 22.4212C18.4421 22.5245 17.8021 22.6828 17.2034 22.9649C16.3775 23.3503 15.6687 23.8871 15.1044 24.6028C14.3955 25.4974 14.0033 26.516 13.8932 27.6446C13.8381 28.2296 13.8725 28.8145 14.0033 29.3926C14.2166 30.3561 14.6502 31.2025 15.3246 31.9182C15.6962 32.3174 16.116 32.6546 16.5909 32.923C16.9969 33.157 17.4236 33.3428 17.8778 33.4804C18.3664 33.6318 18.8619 33.7282 19.3711 33.7763C19.4537 33.7832 19.5432 33.797 19.6258 33.8039C19.7152 33.8108 19.8047 33.8176 19.9079 33.8245C19.9079 33.9002 19.9148 33.9622 19.9148 34.031C19.9148 34.7811 19.9148 35.5381 19.9148 36.2882C19.9148 36.3502 19.9079 36.4052 19.9217 36.4672C19.9492 36.6392 20.1213 36.7287 20.2864 36.6667C20.314 36.653 20.3484 36.6392 20.3759 36.6186C20.9953 36.2745 21.6422 35.9923 22.2959 35.7446C22.6056 35.6276 22.9084 35.5106 23.225 35.4142C24.0577 35.1665 24.9042 34.9532 25.7713 34.8568C26.2049 34.8086 26.6384 34.7673 27.072 34.7605C27.7189 34.7536 28.3658 34.788 29.0058 34.8706C29.6733 34.9532 30.3271 35.0977 30.9809 35.2835C31.4901 35.428 31.9856 35.6138 32.4674 35.8134C32.8252 35.9648 33.1762 36.1368 33.5203 36.3089C33.7199 36.4052 33.9194 36.5153 34.119 36.6186C34.1534 36.6392 34.1878 36.653 34.2291 36.6667C34.3943 36.7218 34.5526 36.6186 34.5663 36.4396C34.5732 36.3777 34.5663 36.3226 34.5663 36.2607C34.5663 35.3248 34.5663 34.3888 34.5663 33.4529C34.5663 33.3841 34.5526 33.3084 34.587 33.2258C34.6902 33.212 34.8003 33.1983 34.9104 33.1776C35.6743 33.0744 36.4176 32.9161 37.1333 32.634C37.732 32.4 38.2963 32.0972 38.7987 31.698C39.3217 31.292 39.7622 30.8034 40.12 30.2391C40.5467 29.5646 40.8151 28.8352 40.9321 28.0506C41.0422 27.3211 41.0078 26.5917 40.8495 25.8691C40.6637 25.0157 40.3127 24.2312 39.7759 23.5361C39.2185 22.8066 38.5303 22.2492 37.6976 21.8707C37.2572 21.6711 36.7961 21.5266 36.3212 21.4578C35.867 21.3958 35.4197 21.3683 34.9586 21.4027C34.3805 21.4371 33.8231 21.5404 33.2725 21.7055C33.1074 21.7537 32.9491 21.8019 32.7702 21.8569C32.7289 21.7812 32.6945 21.7124 32.6601 21.6436C32.4123 21.1481 32.0957 20.7077 31.7035 20.3223C31.1392 19.7717 30.4854 19.3588 29.7628 19.0491C29.1847 18.8014 28.586 18.6224 27.9666 18.5192C27.5744 18.4573 27.1821 18.416 26.7898 18.4022C25.7369 18.3609 24.7115 18.5192 23.7274 18.8977C23.2525 19.0766 22.8052 19.3175 22.3923 19.6272C22.0069 19.9162 21.6559 20.2466 21.3669 20.6388C21.0779 21.038 20.8439 21.4647 20.6787 21.9257C20.6305 22.0565 20.5961 22.1873 20.5548 22.3111Z" fill="#010101"/>
<path d="M31.292 8.18929C31.4159 7.79014 31.526 7.39787 31.643 7.01249C31.76 6.61334 31.877 6.21419 31.994 5.81504C32.111 5.42277 32.2211 5.03051 32.3381 4.63824C32.4551 4.24597 32.5652 3.8537 32.6822 3.46832C32.8129 3.46832 33.2878 3.59907 33.625 3.72983C33.6456 3.778 33.6732 3.82618 33.6938 3.88123C34.1549 4.97545 34.6229 6.06279 35.084 7.15701C35.1115 7.21894 35.139 7.274 35.1803 7.35658C35.2078 7.30841 35.2285 7.28776 35.2354 7.26023C35.4212 6.62022 35.607 5.9802 35.7928 5.34707C35.8685 5.07868 35.9511 4.81717 36.0268 4.54877C36.0337 4.52125 36.0543 4.48684 36.0681 4.44555C36.4328 4.53501 36.7907 4.64512 37.1623 4.75523C37.1554 4.8034 37.1554 4.85158 37.1416 4.89287C36.8182 5.99397 36.4947 7.09507 36.1713 8.19617C36.0474 8.62285 35.9167 9.05641 35.7928 9.48308C35.779 9.53126 35.7584 9.57943 35.7446 9.6276C35.5932 9.62072 35.0289 9.46244 34.8087 9.35921C34.6435 8.96694 34.4715 8.56779 34.2994 8.16864C34.1274 7.76261 33.9484 7.35658 33.7833 6.95055C33.6181 6.5514 33.4392 6.15913 33.2809 5.75998C33.2121 5.76687 33.219 5.80816 33.2121 5.83569C33.0538 6.37247 32.8955 6.90926 32.7372 7.44605C32.634 7.79702 32.5308 8.15488 32.4276 8.50586C32.4138 8.54715 32.3931 8.58844 32.3794 8.63661C32.3381 8.62973 32.3106 8.62973 32.2761 8.62285C31.994 8.54027 31.705 8.45768 31.4228 8.3751C31.3677 8.36134 31.3127 8.34069 31.2645 8.2994C31.237 8.27187 31.1819 8.26499 31.1406 8.26499C30.8516 8.25123 30.5626 8.23746 30.2735 8.2237C30.2047 8.2237 30.1428 8.21682 30.0739 8.20993C29.9088 7.85208 29.8124 7.47357 29.661 7.1226C29.6473 7.11572 29.6404 7.10883 29.6335 7.10883C29.6266 7.10883 29.6197 7.10195 29.6129 7.10195C28.8971 7.06754 28.1745 7.03313 27.4588 6.99872C27.4175 6.99872 27.3831 6.99872 27.3418 6.99872C27.3281 6.99872 27.3143 7.00561 27.2868 7.01249C27.1079 7.34282 26.9702 7.70756 26.7844 8.05853C26.3853 8.05165 25.993 8.04477 25.5801 8.01036C26.4128 6.33118 27.2386 4.67953 28.0644 3.021C28.4636 3.03476 28.8421 3.03476 29.2344 3.07605C29.2756 3.17928 29.3101 3.27563 29.3513 3.37197C29.7367 4.34232 30.1221 5.30578 30.5075 6.27613C30.7415 6.86109 30.9686 7.43916 31.2026 8.02412C31.2095 8.09294 31.2163 8.15488 31.292 8.18929ZM28.5737 4.26662C28.5531 4.29414 28.5393 4.31479 28.5324 4.33544C28.264 4.90663 27.9956 5.48471 27.7341 6.05591C27.7272 6.07655 27.7272 6.10408 27.7135 6.13849C28.2296 6.15913 28.7389 6.17978 29.2481 6.20043C29.255 6.20043 29.2688 6.18666 29.2825 6.17978C29.255 6.03526 28.7939 4.75523 28.6219 4.32167C28.6081 4.30791 28.5943 4.29414 28.5737 4.26662Z" fill="#010101"/>
<path d="M40.7715 12.7246C40.6407 12.642 40.042 12.1327 39.8906 11.9745C39.9113 11.9056 39.9663 11.8575 40.0145 11.8024C40.4825 11.2587 40.9573 10.7151 41.4253 10.1714C41.9758 9.53827 42.5195 8.90514 43.0701 8.27201C43.1113 8.22383 43.1595 8.17566 43.2008 8.12061C43.2421 8.14813 43.2765 8.16878 43.304 8.19631C43.8615 8.67804 44.4258 9.15977 44.9763 9.64838C45.2447 9.88925 45.4649 10.1645 45.6163 10.4949C45.9398 11.183 45.8228 11.8988 45.2998 12.4562C45.0864 12.6833 44.8456 12.8553 44.5497 12.9517C44.2675 13.0412 43.9785 13.048 43.6894 12.993C43.6344 12.9792 43.5724 12.9654 43.5036 12.9517C43.4486 13.2751 43.4279 13.5986 43.3935 13.922C43.3591 14.2386 43.3247 14.562 43.2903 14.8786C43.2627 14.8855 43.249 14.8924 43.2421 14.8855C42.9255 14.6446 42.6434 14.3694 42.3337 14.1147C42.3819 13.5366 42.4576 12.9723 42.5126 12.3874C42.2442 12.1534 41.9758 11.9194 41.7006 11.6785C41.3771 12.0226 41.0881 12.3874 40.7715 12.7246ZM42.3268 10.9422C42.3475 10.9697 42.3543 10.9903 42.3681 11.0041C42.6434 11.2381 42.9186 11.479 43.2008 11.7061C43.2972 11.7818 43.4141 11.8368 43.5311 11.885C43.6825 11.9469 43.8339 11.9607 43.9991 11.9194C44.2262 11.8575 44.3914 11.7129 44.529 11.5271C44.7286 11.245 44.7423 10.9559 44.5703 10.6531C44.4808 10.5017 44.3707 10.3779 44.24 10.2609C44.0198 10.0682 43.7995 9.88237 43.5793 9.68967C43.5518 9.66215 43.5243 9.63462 43.4623 9.63462C43.0838 10.0682 42.7053 10.5086 42.3268 10.9422Z" fill="#010101"/>
<path d="M15.2088 11.9054C14.9198 12.16 14.6376 12.4146 14.3348 12.6624C14.1765 12.4766 14.0182 12.3045 13.8668 12.1325C13.7223 11.9604 13.5709 11.7953 13.4195 11.6301C13.2681 11.4581 13.1236 11.2791 12.9584 11.114C12.9309 11.1277 12.9103 11.1346 12.8965 11.1415C12.3391 11.6301 11.7885 12.1118 11.2173 12.6073C11.2448 12.6486 11.2655 12.6899 11.293 12.7243C11.6784 13.1648 12.0569 13.5983 12.4423 14.0319C12.4836 14.0801 12.5249 14.1351 12.5662 14.1764C12.4629 14.3072 11.8504 14.8439 11.699 14.9403C11.6922 14.9403 11.6853 14.9403 11.6784 14.9403C11.6715 14.9403 11.6646 14.9334 11.6646 14.9334C10.5704 13.6878 9.47619 12.4422 8.38886 11.2034C8.37509 11.1897 8.36821 11.169 8.36133 11.1553C8.45079 11.0245 8.87059 10.646 9.21468 10.3845C9.29038 10.4258 9.33856 10.4946 9.38673 10.5565C9.73771 10.9557 10.0887 11.3617 10.4465 11.7609C10.4741 11.7884 10.5016 11.8159 10.5222 11.8434C10.5911 11.8572 10.6255 11.809 10.6599 11.7746C11.0797 11.403 11.5063 11.0383 11.9261 10.6666C12.0431 10.5634 12.1532 10.4671 12.2634 10.3707C12.2565 10.2813 12.1877 10.24 12.1464 10.1918C11.7816 9.772 11.4169 9.35909 11.0521 8.93929C11.0315 8.91176 11.0109 8.89112 10.9833 8.85671C10.9971 8.83606 11.004 8.80854 11.0246 8.79477C11.2792 8.56767 11.5408 8.34057 11.7954 8.11347C11.8092 8.0997 11.8298 8.09282 11.8436 8.08594C11.8573 8.08594 11.8642 8.08594 11.8711 8.08594C11.878 8.08594 11.8849 8.09282 11.8849 8.09282C11.9193 8.12723 11.9468 8.16164 11.9812 8.19605C13.0479 9.41414 14.1146 10.6254 15.1744 11.8434C15.195 11.8503 15.195 11.8641 15.2088 11.9054Z" fill="#010101"/>
<path d="M18.8584 8.85029C18.9616 8.96729 19.1749 9.35267 19.3057 9.66235C19.2782 9.683 19.2506 9.70365 19.2162 9.72429C18.5143 10.1028 17.8123 10.4813 17.1104 10.8598C16.7456 11.0594 16.3809 11.2521 16.0093 11.4516C15.9611 11.4792 15.9061 11.4998 15.8579 11.5273C15.7547 11.3897 13.5662 7.32252 13.4492 7.05412C13.4836 7.03348 13.518 6.99907 13.5524 6.97842C14.0755 6.69626 14.5985 6.42099 15.1215 6.13883C15.6445 5.85667 16.1676 5.5814 16.6906 5.29924C16.7319 5.2786 16.7732 5.25795 16.8076 5.2373C16.9246 5.37494 17.0966 5.68463 17.2549 6.0356C17.2411 6.09754 17.1792 6.10442 17.1379 6.13195C16.4428 6.51045 15.7478 6.88207 15.0458 7.2537C15.0045 7.27434 14.9701 7.30187 14.9288 7.32252C15.0045 7.52209 15.3486 8.1621 15.4518 8.28598C16.14 7.92812 16.8145 7.54962 17.5026 7.19176C17.6196 7.34316 17.888 7.84554 17.9293 7.99006C17.771 8.10017 17.5852 8.17587 17.4132 8.27221C17.248 8.36856 17.076 8.45114 16.9108 8.54061C16.7388 8.63695 16.5598 8.72642 16.3878 8.82277C16.2226 8.91223 16.0437 8.98793 15.8854 9.10492C15.9129 9.20815 15.968 9.28385 16.0162 9.37332C16.0575 9.4559 16.1056 9.53848 16.1469 9.62106C16.1951 9.71053 16.2433 9.79311 16.2914 9.88258C16.3327 9.96516 16.3671 10.0477 16.436 10.1303C16.5048 10.0959 16.5667 10.0684 16.6287 10.0409C17.014 9.8344 17.3925 9.62795 17.7779 9.42149C18.0876 9.25632 18.3904 9.09116 18.7001 8.92599C18.7483 8.89158 18.8033 8.87094 18.8584 8.85029Z" fill="#010101"/>
<path d="M22.4029 7.30877C22.4786 7.77674 22.5888 8.21718 22.6507 8.6645C22.5062 8.72644 21.935 8.84343 21.5221 8.89849C21.5152 8.8916 21.5083 8.8916 21.5083 8.88472C21.5014 8.87784 21.5014 8.87784 21.4945 8.87096C21.4808 8.80214 21.4601 8.72644 21.4464 8.65762C21.1504 7.08855 20.8545 5.52637 20.5586 3.9573C20.5586 3.94353 20.5655 3.92977 20.5655 3.90912C20.6825 3.84719 20.827 3.8403 20.9577 3.81966C21.5565 3.70267 22.1621 3.58568 22.7677 3.47556C23.1668 3.39986 23.566 3.39298 23.9651 3.50309C24.3505 3.6132 24.6808 3.8059 24.9217 4.13623C25.0249 4.27386 25.1006 4.43215 25.1557 4.59043C25.3071 5.04463 25.3346 5.49196 25.1419 5.93928C25.0456 6.16638 24.9011 6.35907 24.7153 6.52424C24.3987 6.8064 24.0271 6.96468 23.6279 7.06102C23.332 7.12984 23.0361 7.1849 22.7333 7.23995C22.63 7.2606 22.5268 7.28124 22.4029 7.30877ZM22.2171 6.33843C22.2515 6.34531 22.2653 6.35219 22.2791 6.34531C22.5956 6.28337 22.9122 6.22832 23.2288 6.1595C23.3939 6.12509 23.5591 6.07692 23.7036 5.98057C23.9789 5.79476 24.1165 5.54013 24.0821 5.2098C24.0684 5.08592 24.0339 4.96205 23.9789 4.85194C23.8894 4.66613 23.7518 4.53537 23.5522 4.46656C23.3939 4.4115 23.2288 4.39085 23.0636 4.41838C22.747 4.46656 22.4305 4.52161 22.1139 4.57667C22.0451 4.59043 21.9763 4.60419 21.8937 4.62484C21.9831 5.20292 22.107 5.76723 22.2171 6.33843Z" fill="#010101"/>
<path d="M47.1611 11.6304C47.4158 11.9745 47.6566 12.2979 47.8975 12.6214C47.8768 12.6833 47.8562 12.7384 47.8287 12.7934C47.5465 13.4885 47.2575 14.1835 46.9753 14.8786C46.9547 14.9337 46.9134 14.9818 46.9409 15.0575C47.2299 15.0507 47.5121 15.0094 47.8011 14.9818C48.0833 14.9543 48.3655 14.9268 48.6476 14.8993C48.9366 14.8717 49.2257 14.8442 49.5216 14.8098C49.7556 15.1057 49.9689 15.4085 50.2029 15.7251C50.141 15.7389 50.0997 15.7526 50.0584 15.7595C49.6799 15.8008 49.2945 15.8352 48.916 15.8765C48.5306 15.9178 48.1384 15.9522 47.753 15.9935C47.402 16.0279 47.0579 16.0623 46.7069 16.0898C46.6519 16.0967 46.6037 16.1036 46.5486 16.1036C46.4385 16.1105 46.3491 16.1518 46.2596 16.2206C45.8673 16.5165 45.4682 16.8124 45.069 17.1083C45.0346 17.1359 44.9933 17.1634 44.9452 17.1909C44.8351 17.1015 44.78 16.9845 44.6974 16.8812C44.6217 16.7849 44.546 16.6817 44.4703 16.5784C44.3946 16.4752 44.3051 16.372 44.2363 16.2481C44.3189 16.1862 44.3946 16.1242 44.4772 16.0623C44.8419 15.787 45.2067 15.5186 45.5714 15.2502C45.654 15.1883 45.7091 15.1126 45.7503 15.0231C46.1082 14.1423 46.4661 13.2683 46.8239 12.3874C46.9134 12.1672 47.0028 11.9469 47.0923 11.7267C47.113 11.6992 47.1336 11.6785 47.1611 11.6304Z" fill="#010101"/>
<path d="M9.95857 17.3285C8.84371 16.5233 7.74949 15.7113 6.63462 14.9061C6.50387 15.0437 6.4144 15.1951 6.30429 15.3396C6.19418 15.4842 6.09096 15.6287 5.98773 15.7732C5.8845 15.9177 5.77439 16.0554 5.67116 16.1999C5.53352 16.1379 5.10685 15.8283 4.90039 15.6493C4.92104 15.6149 4.94168 15.5736 4.96921 15.5392C5.42341 14.913 5.87762 14.2936 6.3387 13.6674C6.6828 13.1925 7.03377 12.7177 7.37787 12.2428C7.41916 12.1877 7.45357 12.1189 7.5155 12.0776C7.64626 12.1465 8.15552 12.5181 8.27251 12.6282C8.23122 12.7177 8.15552 12.7934 8.10046 12.8828C8.03853 12.9723 7.97659 13.0549 7.91465 13.1374C7.84583 13.2269 7.7839 13.3164 7.71508 13.4058C7.65314 13.4884 7.5912 13.5779 7.52927 13.6605C7.46733 13.7431 7.40539 13.8325 7.33658 13.9289C7.48798 14.0665 7.66002 14.1697 7.81142 14.2936C7.96283 14.4106 8.12111 14.5207 8.27251 14.6308C8.43079 14.7478 8.59596 14.8648 8.75424 14.9818C8.91253 15.0988 9.07081 15.2158 9.23597 15.3328C9.39426 15.4498 9.55254 15.5667 9.71771 15.6837C9.86911 15.7939 10.0274 15.9108 10.1788 16.021C10.3371 16.1379 10.4954 16.2549 10.6536 16.3719C10.5642 16.5371 10.1513 17.1152 9.95857 17.3285Z" fill="#010101"/>
<path d="M42.2105 7.40496C42.1899 7.44625 42.1761 7.48754 42.1624 7.51507C42.0247 7.74905 41.9146 7.98992 41.7632 8.23079C41.5086 8.11379 41.2815 7.97616 41.0475 7.8454C40.8204 7.72153 40.5864 7.59077 40.3455 7.46002C40.318 7.50131 40.2836 7.53572 40.263 7.57701C39.9189 8.19638 39.5817 8.80886 39.2376 9.42823C38.9485 9.94438 38.6664 10.4674 38.3773 10.9835C38.3636 11.0042 38.3498 11.0248 38.3292 11.0524C38.1984 11.0179 38.0952 10.9354 37.9782 10.8734C37.8681 10.8184 37.758 10.7564 37.6478 10.6945C37.5309 10.6326 37.4207 10.5637 37.2969 10.4949C37.6272 9.88244 37.9644 9.28371 38.2947 8.68499C38.6251 8.08627 38.9554 7.48754 39.2926 6.88194C39.1343 6.77871 38.9761 6.69613 38.8178 6.60666C38.6664 6.5172 38.5081 6.43461 38.3498 6.35203C38.1984 6.26945 38.0401 6.17998 37.8887 6.09052C37.9507 5.91847 38.1984 5.45739 38.336 5.25781C38.3704 5.27158 38.4186 5.28534 38.453 5.30599C39.0655 5.6432 39.678 5.98041 40.2836 6.31762C40.8823 6.64795 41.4811 6.97828 42.0798 7.30861C42.128 7.3499 42.1624 7.37743 42.2105 7.40496Z" fill="#010101"/>
<path d="M23.9958 47.3681C23.9821 47.8705 23.9339 48.3591 23.9064 48.8615C24.1059 48.9096 24.2917 48.9027 24.4844 48.9165C24.684 48.9303 24.8767 48.944 25.0763 48.9578C25.269 48.9716 25.4548 48.9784 25.6475 48.9922C25.6956 48.8133 25.6819 48.6481 25.6956 48.483C25.7094 48.3109 25.7163 48.1389 25.73 47.9668C25.7438 47.8016 25.7576 47.6434 25.7713 47.4713C26.0673 47.4713 26.3425 47.5126 26.6316 47.5126C26.6385 47.5539 26.6453 47.5883 26.6453 47.6158C26.6178 48.0425 26.5903 48.4692 26.5696 48.8959C26.5559 49.1711 26.5352 49.4464 26.5146 49.7217C26.4802 50.231 26.4526 50.7333 26.4182 51.2426C26.4182 51.2839 26.4045 51.3183 26.4045 51.3527C26.2324 51.3802 25.7163 51.3458 25.5305 51.2976C25.5236 51.043 25.5511 50.7884 25.5649 50.5338C25.5786 50.2791 25.5993 50.0245 25.6131 49.7561C25.5855 49.7423 25.5649 49.7286 25.5374 49.7286C25.0075 49.6942 24.4707 49.6598 23.9408 49.6253C23.9201 49.6253 23.9064 49.6322 23.8719 49.6391C23.8238 49.8937 23.8307 50.1484 23.81 50.403C23.7894 50.6576 23.7756 50.9123 23.7549 51.1807C23.6035 51.2151 23.459 51.1807 23.3214 51.1807C23.1769 51.1738 23.0324 51.16 22.881 51.1462C22.8741 51.0981 22.8672 51.0637 22.8672 51.0292C22.9016 50.5062 22.936 49.9763 22.9704 49.4533C23.0048 48.9096 23.0392 48.3591 23.0736 47.8154C23.0805 47.6434 23.0943 47.4782 23.1218 47.3062C23.2526 47.3062 23.7481 47.3337 23.9958 47.3681Z" fill="#010101"/>
<path d="M32.5682 47.2236C32.6164 47.375 32.6508 47.7673 32.6301 47.9325C32.2998 47.9806 31.9695 47.9944 31.6323 48.0219C31.3019 48.0495 30.9785 48.077 30.6551 48.1114C30.6206 48.2697 30.6482 48.6619 30.7032 48.9372C30.9991 48.9372 31.2882 48.889 31.5841 48.8684C31.88 48.8478 32.1691 48.8133 32.4787 48.7996C32.5063 49.0267 32.5407 49.2469 32.5338 49.4809C32.3342 49.5222 32.1347 49.5291 31.942 49.5428C31.7424 49.5566 31.5497 49.5704 31.3501 49.591C31.1574 49.6185 30.9579 49.6048 30.7583 49.6529C30.7652 49.9557 30.7996 50.231 30.8271 50.5269C30.8753 50.5269 30.9097 50.5338 30.951 50.5269C31.5153 50.4788 32.0796 50.4237 32.6439 50.3755C32.7334 50.3687 32.8228 50.3618 32.9261 50.3687C32.9467 50.6026 32.9605 50.8229 32.9811 51.0293C32.9467 51.0844 32.9054 51.0775 32.8641 51.0844C32.6233 51.105 32.3755 51.1325 32.1347 51.1532C31.4809 51.2082 30.834 51.2633 30.1802 51.3184C30.1251 51.3252 30.0632 51.3459 29.9944 51.3046C29.8705 50.0452 29.7811 48.7721 29.6641 47.4851C29.9944 47.4301 30.3178 47.4232 30.6344 47.3888C30.951 47.3544 31.2675 47.3337 31.5772 47.3062C31.9144 47.2787 32.2379 47.2512 32.5682 47.2236Z" fill="#010101"/>
<path d="M20.2967 47.54C20.0765 47.6708 19.8631 47.7946 19.636 47.9254C19.6016 47.8841 19.581 47.8566 19.5603 47.829C19.2782 47.4024 18.8721 47.2234 18.3766 47.251C17.9844 47.2716 17.6678 47.4574 17.4682 47.8015C17.2755 48.1181 17.2067 48.4622 17.2962 48.8269C17.3788 49.1641 17.5783 49.4188 17.888 49.577C18.3216 49.7904 18.7483 49.7973 19.1681 49.5426C19.2025 49.522 19.2369 49.5013 19.2713 49.4807C19.3814 49.5633 19.4296 49.6803 19.5053 49.7766C19.581 49.8798 19.6498 49.9831 19.7186 50.0932C19.6842 50.1276 19.6636 50.1551 19.6291 50.1758C19.23 50.4442 18.7827 50.5336 18.3078 50.4854C18.0807 50.4648 17.8536 50.4097 17.6403 50.3203C16.9934 50.0588 16.5529 49.5977 16.3947 48.9095C16.1676 47.9047 16.7319 46.666 18.0601 46.4802C18.6313 46.3976 19.1612 46.5352 19.6498 46.8312C19.9388 47.0101 20.1522 47.2372 20.2967 47.54Z" fill="#010101"/>
<path d="M38.4712 47.8704C38.5263 48.1112 38.5744 48.3246 38.6226 48.531C38.5744 48.5999 38.5056 48.5999 38.4506 48.6136C37.9964 48.7169 37.5353 48.8201 37.0811 48.9233C37.026 48.9371 36.9641 48.9508 36.9021 48.9715C36.9021 49.0128 36.9021 49.0541 36.909 49.0885C36.9847 49.4326 37.0673 49.7836 37.1499 50.1276C37.1636 50.1965 37.1912 50.2653 37.1705 50.3479C36.8953 50.4098 36.62 50.4717 36.3447 50.5406C36.3309 50.513 36.3103 50.4924 36.3034 50.4649C36.0213 49.2399 35.746 48.0149 35.4707 46.783C35.5051 46.7693 35.5258 46.7555 35.5533 46.7486C36.4548 46.5422 37.3495 46.3357 38.251 46.1362C38.2716 46.1293 38.2923 46.1362 38.3198 46.143C38.3955 46.3495 38.423 46.5697 38.4781 46.8037C38.4299 46.8175 38.3955 46.8381 38.3542 46.8519C37.7693 46.9826 37.1843 47.1203 36.5993 47.251C36.5718 47.2579 36.5512 47.2648 36.5305 47.2717C36.5236 47.4162 36.6681 48.0631 36.7507 48.2627C37.0398 48.2145 37.3219 48.1319 37.611 48.07C37.8862 48.008 38.1615 47.9392 38.4712 47.8704Z" fill="#010101"/>
<path d="M20.5648 22.3108C20.6061 22.1869 20.6405 22.0493 20.6818 21.9254C20.847 21.4643 21.0741 21.0377 21.37 20.6385C21.6591 20.2462 22.01 19.9159 22.3954 19.6269C22.8015 19.3241 23.2488 19.0832 23.7305 18.8974C24.7146 18.5189 25.74 18.3606 26.7929 18.4019C27.1921 18.4157 27.5844 18.4569 27.9697 18.5189C28.5891 18.6221 29.1878 18.801 29.7659 19.0488C30.4885 19.3585 31.1423 19.7714 31.7066 20.3219C32.0989 20.7073 32.4223 21.1478 32.6632 21.6433C32.6976 21.7121 32.7389 21.7809 32.7733 21.8566C32.9453 21.8015 33.1105 21.7534 33.2757 21.7052C33.8262 21.54 34.3905 21.4437 34.9617 21.4024C35.4159 21.3749 35.8701 21.4024 36.3244 21.4574C36.8061 21.5263 37.2603 21.6708 37.7007 21.8704C38.5334 22.2489 39.2216 22.8063 39.7791 23.5358C40.309 24.2308 40.6599 25.0154 40.8526 25.8687C41.0109 26.5913 41.0453 27.3208 40.9352 28.0503C40.8182 28.8348 40.5498 29.5643 40.1231 30.2387C39.7653 30.803 39.3249 31.2917 38.8018 31.6977C38.2926 32.09 37.7351 32.3928 37.1364 32.6336C36.4207 32.9158 35.6775 33.0741 34.9136 33.1773C34.8035 33.1911 34.6933 33.2048 34.5901 33.2255C34.5557 33.3081 34.5695 33.3769 34.5695 33.4526C34.5695 34.3885 34.5695 35.3244 34.5695 36.2604C34.5695 36.3223 34.5695 36.3774 34.5695 36.4393C34.5557 36.6182 34.3974 36.7215 34.2323 36.6664C34.1979 36.6526 34.1566 36.6389 34.1221 36.6182C33.9226 36.515 33.7299 36.4049 33.5234 36.3086C33.1725 36.1365 32.8284 35.9645 32.4705 35.8131C31.9819 35.6135 31.4864 35.4277 30.984 35.2832C30.3371 35.0973 29.6833 34.9528 29.0089 34.8702C28.3689 34.7877 27.722 34.7532 27.0751 34.7601C26.6415 34.767 26.208 34.8014 25.7744 34.8565C24.9073 34.9528 24.0608 35.1662 23.2281 35.4139C22.9116 35.5103 22.6019 35.6272 22.2991 35.7442C21.6384 35.9989 20.9915 36.2741 20.379 36.6182C20.3515 36.632 20.324 36.6526 20.2896 36.6664C20.1313 36.7283 19.9592 36.6389 19.9248 36.4668C19.918 36.4118 19.918 36.3498 19.918 36.2879C19.918 35.5378 19.918 34.7808 19.918 34.0307C19.918 33.9687 19.9111 33.8999 19.9111 33.8242C19.8078 33.8173 19.7184 33.8104 19.6289 33.8035C19.5463 33.7967 19.4569 33.7829 19.3743 33.776C18.865 33.7278 18.3695 33.6315 17.8809 33.4801C17.4336 33.3356 17.0069 33.1498 16.594 32.9227C16.1192 32.6543 15.6994 32.3171 15.3277 31.9179C14.6533 31.1953 14.2198 30.3488 14.0064 29.3923C13.8757 28.8142 13.8413 28.2292 13.8963 27.6443C13.9995 26.5156 14.3987 25.4971 15.1075 24.6025C15.6787 23.8868 16.3875 23.35 17.2065 22.9646C17.8052 22.6824 18.4452 22.5173 19.099 22.4209C19.5257 22.3521 19.9524 22.3383 20.379 22.3383C20.4272 22.3383 20.4685 22.3383 20.5167 22.3314C20.5304 22.3314 20.5442 22.3177 20.5648 22.3108ZM19.9042 31.6082C19.8629 31.5945 19.8354 31.5876 19.801 31.5807C19.4569 31.4844 19.1197 31.3742 18.81 31.1953C18.2732 30.8925 17.8603 30.4727 17.5712 29.929C17.2478 29.3234 17.1033 28.6697 17.062 27.9952C17.062 27.9539 17.0551 27.9127 17.0689 27.8782C17.0757 27.8507 17.1033 27.8232 17.1308 27.8094C17.1721 27.7888 17.2134 27.8094 17.234 27.8507C17.2547 27.892 17.2684 27.9333 17.2822 27.9815C17.3304 28.1535 17.3717 28.3256 17.4198 28.4976C17.5575 28.9931 17.7708 29.4473 18.0805 29.8602C18.5553 30.5002 19.1954 30.8925 19.9661 31.0921C20.0349 31.1058 20.0969 31.1059 20.1588 31.0714C20.2345 31.0301 20.3102 30.9957 20.3928 30.9613C20.8883 30.7067 21.3907 30.4727 21.9068 30.2731C22.7946 29.929 23.6961 29.6469 24.632 29.468C24.6802 29.4611 24.7284 29.4404 24.7903 29.4198C24.749 29.3441 24.7215 29.2753 24.6871 29.2133C24.4531 28.7935 24.2948 28.3531 24.1916 27.8851C24.0953 27.4516 24.0953 27.018 24.1778 26.5913C24.1847 26.55 24.1916 26.5156 24.2122 26.4812C24.226 26.4606 24.2535 26.4399 24.2742 26.4399C24.3017 26.4399 24.3292 26.4606 24.3568 26.4812C24.3705 26.495 24.3705 26.5156 24.3774 26.5363C24.4256 26.784 24.4806 27.0249 24.5288 27.2726C24.632 27.7681 24.7766 28.2568 25.0105 28.711C25.1619 29.0069 25.3202 29.2959 25.5267 29.5505C25.8501 29.9635 26.208 30.3351 26.614 30.6723C27.0476 31.0302 27.5155 31.3398 28.0248 31.5738C28.8782 31.973 29.7797 32.1863 30.7225 32.1588C30.9221 32.1519 31.1148 32.1381 31.3143 32.1244C31.7066 32.0968 32.0851 32.0143 32.4567 31.911C32.9316 31.7803 33.3927 31.5945 33.84 31.3811C34.2116 31.2022 34.5557 30.982 34.8585 30.6998C35.4572 30.1493 35.877 29.4748 36.1729 28.7247C36.2968 28.4082 36.4207 28.0847 36.4964 27.7475C36.517 27.6649 36.5583 27.6305 36.6134 27.6305C36.6753 27.6374 36.7097 27.6924 36.7029 27.7819C36.6891 27.892 36.6753 28.0021 36.6616 28.1191C36.5515 28.9725 36.2762 29.757 35.7669 30.459C35.4641 30.8787 35.1063 31.2504 34.6589 31.5188C34.6383 31.5325 34.6176 31.5532 34.6039 31.5738C34.6039 31.6977 34.5901 31.8216 34.6176 31.9592C34.6933 31.9454 34.7622 31.9386 34.8172 31.9179C34.948 31.8766 35.0787 31.8284 35.2095 31.7803C35.705 31.5876 36.1041 31.2779 36.3381 30.7893C36.3519 30.7549 36.3794 30.7205 36.4069 30.6929C36.4551 30.6516 36.5308 30.6723 36.5515 30.7342C36.5583 30.7618 36.5583 30.803 36.5515 30.8306C36.4551 31.3192 36.2142 31.7252 35.8082 32.028C35.5467 32.2276 35.2439 32.3377 34.9273 32.4203C34.8172 32.4478 34.714 32.4753 34.6039 32.5098C34.6039 32.5717 34.6039 32.6199 34.6039 32.6818C34.6521 32.6818 34.6865 32.6887 34.7278 32.6887C34.9411 32.6612 35.1613 32.6336 35.3747 32.6061C35.7532 32.5579 36.1248 32.4547 36.4895 32.3446C36.9231 32.207 37.3429 32.028 37.742 31.8078C38.3476 31.4844 38.8706 31.0508 39.318 30.5347C39.8341 29.9359 40.1782 29.2409 40.364 28.4701C40.5292 27.7819 40.5636 27.0868 40.4535 26.3849C40.2677 25.1943 39.7791 24.162 38.9188 23.3087C38.4921 22.882 37.9966 22.5585 37.453 22.3177C36.8749 22.0631 36.2624 21.9392 35.6293 21.9117C34.769 21.8772 33.9363 22.0355 33.1243 22.3108C33.1174 22.3108 33.1105 22.3314 33.0968 22.3452C33.1105 22.3727 33.1243 22.414 33.1449 22.4416C33.2344 22.5723 33.317 22.7031 33.4133 22.8338C33.6473 23.1504 33.9019 23.4394 34.2254 23.6665C34.7759 24.0519 35.3884 24.2171 36.0628 24.1276C36.1179 24.1207 36.1661 24.1139 36.2211 24.1207C36.2624 24.1207 36.3037 24.1689 36.3175 24.2102C36.3244 24.2515 36.2968 24.2997 36.2487 24.3134C36.2142 24.3272 36.1867 24.3272 36.1523 24.341C35.8082 24.4304 35.4641 24.4511 35.1131 24.4098C34.6865 24.3547 34.2942 24.224 33.9363 23.9762C33.5234 23.6941 33.1862 23.3362 32.8972 22.9302C32.6632 22.5998 32.4636 22.2557 32.2778 21.891C31.8718 21.0996 31.2868 20.4802 30.5436 20.0123C30.1307 19.7507 29.6833 19.5512 29.2223 19.386C28.3345 19.0626 27.4192 18.9318 26.4833 18.918C26.0979 18.9112 25.7194 18.9593 25.3409 19.0144C24.5288 19.1383 23.7649 19.3998 23.063 19.8196C22.6019 20.0948 22.2027 20.4458 21.8586 20.8587C21.4939 21.2992 21.2462 21.7947 21.0741 22.3314C20.9571 22.6962 20.8677 23.0678 20.847 23.4532C20.8126 24.0313 20.8539 24.6025 20.9434 25.1668C20.9846 25.4145 21.0259 25.6623 21.1292 25.8963C21.136 25.91 21.136 25.9238 21.136 25.9376C21.1429 25.9788 21.1292 26.0133 21.0879 26.0339C21.0466 26.0545 21.0053 26.0339 20.9846 25.9995C20.9434 25.9307 20.9089 25.8619 20.8814 25.7862C20.7919 25.5659 20.73 25.3388 20.6818 25.1048C20.5304 24.396 20.4341 23.6872 20.4891 22.9646C20.4891 22.9302 20.4823 22.9026 20.4823 22.8614C20.4341 22.8545 20.3859 22.8476 20.3446 22.8476C19.7459 22.8614 19.1472 22.9026 18.5622 23.054C17.7158 23.2674 16.9381 23.6321 16.2637 24.2033C15.837 24.5681 15.4791 24.981 15.1901 25.4627C14.791 26.1234 14.5432 26.8391 14.4675 27.603C14.3987 28.3049 14.4537 29 14.6671 29.6744C14.8667 30.3213 15.1901 30.8994 15.6237 31.4087C16.1811 32.0624 16.8693 32.5235 17.6607 32.8401C18.2938 33.0878 18.9614 33.2324 19.6427 33.2943C19.7459 33.3012 19.8491 33.3218 19.9455 33.3012C19.973 33.0947 19.973 32.8814 19.9386 32.7369C19.9042 32.7369 19.8767 32.7437 19.8422 32.7437C19.6908 32.7575 19.5394 32.7781 19.388 32.7781C18.6655 32.785 18.108 32.4753 17.6951 31.8835C17.6332 31.794 17.5781 31.6908 17.5231 31.5945C17.4886 31.5325 17.4955 31.4844 17.5368 31.4499C17.5781 31.4155 17.64 31.4224 17.6951 31.4775C17.7433 31.5256 17.7846 31.5738 17.8327 31.622C18.1218 31.9041 18.4383 32.1244 18.8513 32.2001C19.1472 32.2551 19.4431 32.2689 19.739 32.2276C19.8147 32.2138 19.8904 32.2001 19.9661 32.1657C19.9111 31.9798 19.9248 31.794 19.9042 31.6082ZM34.0533 35.9851C34.0533 35.8819 34.0602 35.8062 34.0602 35.7374C34.0602 34.5261 34.0602 33.3081 34.0602 32.0968C34.0602 32.0487 34.0602 32.0074 34.0602 31.9592C34.0602 31.9248 34.0671 31.8904 34.012 31.8629C33.9914 31.8697 33.9639 31.8766 33.9363 31.8904C33.6473 32.0418 33.3445 32.145 33.0417 32.2551C32.3879 32.496 31.7066 32.6199 31.0115 32.668C30.3165 32.7162 29.6283 32.6405 28.9539 32.4685C28.0523 32.2345 27.2403 31.8216 26.5039 31.2641C26.1736 31.0233 25.8708 30.748 25.5955 30.4452C25.4647 30.3007 25.334 30.1493 25.2032 29.9979C25.1757 29.9635 25.1413 29.9359 25.1138 29.9084C24.0058 30.0116 21.1498 30.9957 20.4479 31.5188C20.4479 31.5738 20.441 31.6426 20.441 31.7046C20.441 33.0603 20.441 34.4229 20.441 35.7787C20.441 35.8199 20.441 35.8612 20.441 35.8956C20.441 35.9232 20.4547 35.9507 20.4685 35.9989C20.5511 35.9576 20.6268 35.9232 20.6956 35.8888C21.2049 35.6341 21.7279 35.4139 22.2578 35.2143C22.712 35.0423 23.18 34.8909 23.6479 34.7601C24.2467 34.595 24.8523 34.4642 25.4647 34.3747C26.0084 34.2922 26.5521 34.2509 27.1026 34.244C27.956 34.2371 28.8025 34.2922 29.642 34.4436C30.3096 34.5606 30.9702 34.7188 31.6171 34.9391C32.3948 35.2075 33.1587 35.5171 33.8882 35.9094C33.9226 35.93 33.9707 35.9507 34.0533 35.9851Z" fill="#F5F5F5"/>
<path d="M28.5644 4.26709C28.585 4.29462 28.5988 4.3015 28.6057 4.32214C28.7777 4.74882 29.2388 6.03573 29.2663 6.18025C29.2526 6.18713 29.2457 6.2009 29.2319 6.2009C28.7227 6.18025 28.2203 6.15961 27.6973 6.13896C27.7041 6.10455 27.7041 6.07702 27.7179 6.05638C27.9863 5.48518 28.2478 4.9071 28.5162 4.33591C28.53 4.31526 28.5437 4.3015 28.5644 4.26709Z" fill="#F5F5F5"/>
<path d="M42.3359 10.9422C42.7144 10.5086 43.0929 10.0682 43.4646 9.64152C43.5265 9.63463 43.554 9.66904 43.5816 9.69657C43.8018 9.88926 44.022 10.0751 44.2422 10.2678C44.373 10.3848 44.4831 10.5086 44.5725 10.66C44.7446 10.9628 44.7308 11.2519 44.5313 11.534C44.4005 11.7198 44.2353 11.8644 44.0014 11.9263C43.8431 11.9676 43.6848 11.9538 43.5334 11.8919C43.4164 11.8437 43.2994 11.7887 43.2031 11.713C42.9209 11.4859 42.6456 11.245 42.3703 11.011C42.3566 10.9904 42.3497 10.9697 42.3359 10.9422Z" fill="#F5F5F5"/>
<path d="M22.2141 6.33844C22.104 5.76724 21.9801 5.20292 21.8906 4.62485C21.9732 4.6042 22.042 4.59044 22.1108 4.57667C22.4274 4.52162 22.744 4.46656 23.0605 4.41839C23.2257 4.39086 23.3909 4.41151 23.5492 4.46656C23.7487 4.53538 23.8864 4.66614 23.9758 4.85195C24.0309 4.96894 24.0653 5.08593 24.0791 5.20981C24.1135 5.54014 23.9827 5.80165 23.7006 5.98058C23.556 6.07692 23.3909 6.1251 23.2257 6.15951C22.9091 6.22144 22.5926 6.28338 22.276 6.34532C22.2622 6.3522 22.2485 6.34532 22.2141 6.33844Z" fill="#F5F5F5"/>
<path d="M19.8947 31.6083C19.9222 31.7941 19.9085 31.9799 19.9016 32.1658C19.8259 32.2002 19.7502 32.2139 19.6745 32.2277C19.3786 32.269 19.0827 32.2552 18.7867 32.2002C18.3807 32.1245 18.0573 31.9042 17.7682 31.6221C17.72 31.5739 17.6787 31.5257 17.6306 31.4776C17.5755 31.4225 17.5136 31.4156 17.4723 31.45C17.4379 31.4776 17.4241 31.5326 17.4585 31.5946C17.5136 31.6909 17.5686 31.7941 17.6306 31.8836C18.0366 32.4754 18.594 32.7851 19.3235 32.7782C19.4749 32.7782 19.6263 32.7507 19.7777 32.7438C19.8121 32.7438 19.8397 32.737 19.8741 32.737C19.9085 32.8815 19.9085 33.0948 19.8809 33.3013C19.7777 33.315 19.6745 33.3013 19.5781 33.2944C18.8968 33.2325 18.2362 33.0879 17.5962 32.8402C16.8048 32.5305 16.1166 32.0625 15.5591 31.4088C15.1256 30.8926 14.8021 30.3145 14.6026 29.6745C14.3892 28.9932 14.3342 28.305 14.403 27.6031C14.4787 26.8392 14.7264 26.1235 15.1256 25.4628C15.4146 24.988 15.7725 24.5682 16.1991 24.2034C16.8736 23.6322 17.6443 23.2675 18.4977 23.0541C19.0827 22.9027 19.6814 22.8615 20.2801 22.8477C20.3214 22.8477 20.3696 22.8546 20.4177 22.8615C20.4246 22.9027 20.4315 22.9303 20.4246 22.9647C20.3696 23.6873 20.4659 24.403 20.6173 25.1049C20.6655 25.3389 20.7274 25.566 20.8169 25.7863C20.8444 25.862 20.8857 25.9308 20.9201 25.9996C20.9408 26.034 20.9821 26.0478 21.0233 26.034C21.0646 26.0134 21.0784 25.9789 21.0715 25.9377C21.0715 25.9239 21.0646 25.9101 21.0646 25.8964C20.9683 25.6624 20.9201 25.4146 20.8788 25.1669C20.7894 24.5957 20.7481 24.0245 20.7825 23.4533C20.8031 23.0679 20.8926 22.6963 21.0096 22.3316C21.1816 21.7948 21.4294 21.2924 21.7941 20.8588C22.1382 20.4459 22.5374 20.0949 22.9984 19.8197C23.7073 19.3999 24.4643 19.1315 25.2763 19.0145C25.6548 18.9594 26.0333 18.9113 26.4187 18.9181C27.3547 18.9388 28.27 19.0627 29.1577 19.3861C29.6188 19.5582 30.0661 19.7508 30.479 20.0124C31.2223 20.4872 31.8141 21.1066 32.2133 21.8911C32.3991 22.249 32.5987 22.5999 32.8326 22.9303C33.1217 23.3363 33.4589 23.6942 33.8718 23.9763C34.2297 24.2241 34.6219 24.3548 35.0486 24.4099C35.3996 24.4512 35.7437 24.4305 36.0878 24.3411C36.1222 24.3342 36.1497 24.3273 36.1841 24.3135C36.2323 24.2998 36.2667 24.2516 36.2529 24.2103C36.2461 24.169 36.2048 24.1208 36.1566 24.1208C36.1015 24.1208 36.0534 24.1208 35.9983 24.1277C35.3239 24.2172 34.7114 24.052 34.1608 23.6666C33.8374 23.4395 33.5828 23.1505 33.3488 22.8339C33.2524 22.7032 33.1699 22.5724 33.0804 22.4417C33.0597 22.4073 33.046 22.3728 33.0322 22.3453C33.046 22.3247 33.0529 22.3109 33.0597 22.3109C33.8718 22.0356 34.7045 21.8773 35.5647 21.9118C36.1979 21.9393 36.8104 22.0632 37.3884 22.3178C37.939 22.5587 38.4276 22.8821 38.8543 23.3088C39.7145 24.1621 40.2031 25.1944 40.3889 26.385C40.499 27.0869 40.4646 27.782 40.2995 28.4702C40.1137 29.241 39.7696 29.936 39.2534 30.5348C38.8061 31.0509 38.2831 31.4845 37.6775 31.8079C37.2714 32.0212 36.8585 32.2071 36.425 32.3447C36.0602 32.4617 35.6886 32.558 35.3101 32.6062C35.0968 32.6337 34.8766 32.6681 34.6632 32.6888C34.6288 32.6957 34.5875 32.6888 34.5393 32.6819C34.5393 32.62 34.5393 32.5718 34.5393 32.5099C34.6495 32.4823 34.7596 32.4479 34.8628 32.4204C35.1794 32.3378 35.4753 32.2208 35.7437 32.0281C36.1497 31.7253 36.3906 31.3193 36.4869 30.8307C36.4938 30.7963 36.4938 30.7619 36.4869 30.7343C36.4732 30.6724 36.3906 30.6449 36.3424 30.693C36.3149 30.7206 36.2873 30.755 36.2736 30.7894C36.0327 31.278 35.6404 31.5877 35.1449 31.7804C35.0142 31.8285 34.8834 31.8767 34.7527 31.918C34.6907 31.9387 34.6288 31.9455 34.5531 31.9593C34.5256 31.8217 34.5393 31.6978 34.5393 31.5739C34.56 31.5533 34.5738 31.5326 34.5944 31.5189C35.0417 31.2436 35.3927 30.8788 35.7024 30.4591C36.2048 29.7571 36.4869 28.9726 36.597 28.1192C36.6108 28.0091 36.6246 27.899 36.6383 27.782C36.6452 27.6925 36.6108 27.6306 36.5489 27.6306C36.5007 27.6237 36.4525 27.665 36.4319 27.7476C36.3493 28.0848 36.2323 28.4014 36.1084 28.7248C35.8125 29.4749 35.3927 30.1494 34.794 30.6999C34.4912 30.9821 34.154 31.2023 33.7755 31.3812C33.3281 31.5946 32.867 31.7804 32.3922 31.9111C32.0137 32.0144 31.6352 32.0969 31.2498 32.1245C31.0502 32.1382 30.8575 32.152 30.658 32.1589C29.7083 32.1864 28.8136 31.9731 27.9603 31.5739C27.451 31.3331 26.983 31.0303 26.5495 30.6724C26.1435 30.3352 25.7856 29.9636 25.4622 29.5506C25.2557 29.2891 25.0974 29.0001 24.946 28.7111C24.712 28.2569 24.5744 27.7682 24.4643 27.2727C24.4161 27.025 24.3611 26.7841 24.3129 26.5364C24.306 26.5157 24.306 26.4951 24.2922 26.4813C24.2716 26.4607 24.2372 26.44 24.2096 26.44C24.189 26.44 24.1615 26.4607 24.1477 26.4813C24.1271 26.5157 24.1202 26.557 24.1133 26.5914C24.0376 27.025 24.0376 27.4586 24.1271 27.8852C24.2303 28.3532 24.3886 28.7936 24.6226 29.2134C24.657 29.2754 24.6914 29.3373 24.7258 29.4199C24.6639 29.4405 24.6157 29.4612 24.5675 29.4681C23.6316 29.647 22.7232 29.9291 21.8423 30.2732C21.3261 30.4728 20.8238 30.7068 20.3283 30.9614C20.2526 31.0027 20.17 31.0302 20.0943 31.0715C20.0324 31.106 19.9704 31.1059 19.9016 31.0922C19.1308 30.8995 18.4908 30.5072 18.016 29.8603C17.7132 29.4474 17.4998 28.9863 17.3553 28.4977C17.3071 28.3257 17.2658 28.1536 17.2177 27.9816C17.2039 27.9403 17.197 27.8921 17.1695 27.8508C17.1488 27.8164 17.1076 27.7958 17.0663 27.8095C17.0387 27.8233 17.0112 27.8508 17.0043 27.8783C16.9906 27.9128 16.9974 27.954 16.9974 27.9953C17.0387 28.6766 17.1833 29.3235 17.5067 29.9291C17.7957 30.4728 18.2087 30.8926 18.7454 31.1954C19.0551 31.3743 19.3923 31.4845 19.7364 31.5808C19.8259 31.5877 19.8534 31.6014 19.8947 31.6083Z" fill="#156053"/>
<path d="M34.0481 35.9854C33.9655 35.951 33.9173 35.9303 33.876 35.9097C33.1466 35.5243 32.3827 35.2077 31.605 34.9393C30.965 34.7191 30.3043 34.5608 29.6299 34.4439C28.7903 34.2925 27.9439 34.2374 27.0905 34.2443C26.54 34.2512 25.9963 34.2925 25.4526 34.375C24.8401 34.4714 24.2345 34.5953 23.6358 34.7604C23.1678 34.8912 22.6999 35.0426 22.2457 35.2146C21.7158 35.4142 21.1927 35.6344 20.6835 35.889C20.6147 35.9235 20.5458 35.9579 20.4564 35.9992C20.4426 35.9579 20.4288 35.9303 20.4288 35.8959C20.422 35.8546 20.4288 35.8202 20.4288 35.7789C20.4288 34.4232 20.4288 33.0606 20.4288 31.7049C20.4288 31.6429 20.4288 31.5741 20.4357 31.5191C21.1377 30.996 24.0005 30.005 25.1016 29.9087C25.1292 29.9362 25.1636 29.9637 25.1911 29.9982C25.3219 30.1496 25.4526 30.2941 25.5834 30.4455C25.8586 30.7483 26.1683 31.0236 26.4918 31.2644C27.235 31.815 28.0471 32.2348 28.9417 32.4688C29.6162 32.6408 30.3043 32.7165 30.9994 32.6683C31.6945 32.6202 32.3758 32.5032 33.0296 32.2554C33.3324 32.1453 33.6421 32.0421 33.9242 31.8907C33.9517 31.8769 33.9862 31.87 33.9999 31.8631C34.0481 31.8907 34.0412 31.9251 34.0481 31.9595C34.0481 32.0077 34.0481 32.049 34.0481 32.0971C34.0481 33.3083 34.0481 34.5264 34.0481 35.7376C34.055 35.8065 34.0481 35.8753 34.0481 35.9854Z" fill="#156053"/>
</svg>
