<svg width="51" height="51" viewBox="0 0 51 51" fill="none" xmlns="http://www.w3.org/2000/svg">
<circle cx="25.5" cy="25.5" r="25.5" fill="black"/>
<path d="M37.8519 15H13.1481C11.9618 15 11 15.9897 11 17.2105V33.7895C11 35.0103 11.9618 36 13.1481 36H37.8519C39.0382 36 40 35.0103 40 33.7895V17.2105C40 15.9897 39.0382 15 37.8519 15Z" fill="white"/>
<path d="M11.537 15.5526L24.2981 26.5832C24.6859 26.9184 25.2486 26.9293 25.6484 26.6093L39.463 15.5526M13.1481 15H37.8519C39.0382 15 40 15.9897 40 17.2105V33.7895C40 35.0103 39.0382 36 37.8519 36H13.1481C11.9618 36 11 35.0103 11 33.7895V17.2105C11 15.9897 11.9618 15 13.1481 15Z" stroke="black" stroke-width="2"/>
</svg>
