<svg width="51" height="51" viewBox="0 0 51 51" fill="none" xmlns="http://www.w3.org/2000/svg">
<path d="M25.5645 4.48614e-05C25.5986 4.96067e-05 25.6328 5.43515e-05 25.668 5.92403e-05C26.8366 0.000268247 27.9843 0.0510977 29.1404 0.22595C29.1912 0.233437 29.1912 0.233437 29.2429 0.241075C33.1604 0.81966 36.9095 2.31838 40.1423 4.60852C40.1793 4.63476 40.2164 4.66101 40.2545 4.68805C40.7937 5.07222 41.3131 5.4807 41.8207 5.90586C41.8476 5.92833 41.8745 5.95079 41.9022 5.97394C42.8204 6.74395 43.7289 7.56866 44.5011 8.48764C44.6482 8.6514 44.6482 8.6514 44.7957 8.8148C44.8619 8.90072 44.8619 8.90072 44.8619 9.00399C44.8959 9.00399 44.93 9.00399 44.965 9.00399C45.0341 9.08024 45.0341 9.08024 45.1164 9.19117C45.2487 9.36685 45.3826 9.54073 45.5197 9.71265C46.4162 10.8409 47.1868 12.0436 47.8793 13.3072C47.9266 13.3935 47.9742 13.4796 48.0222 13.5656C48.7213 14.8181 49.2574 16.1639 49.7072 17.5239C49.7257 17.5793 49.7441 17.6348 49.7631 17.6919C50.3627 19.5135 50.7199 21.3985 50.8928 23.307C50.8977 23.3568 50.9026 23.4065 50.9077 23.4577C51.0579 25.1863 51.029 27.0095 50.7897 28.7288C50.7845 28.766 50.7794 28.8033 50.7741 28.8417C50.3673 31.7818 49.4801 34.542 48.1608 37.197C48.1397 37.2399 48.1185 37.2827 48.0967 37.3269C47.5612 38.4047 46.916 39.4306 46.2021 40.3984C46.1421 40.4804 46.1421 40.4804 46.0809 40.564C45.968 40.7164 45.8536 40.8675 45.7382 41.018C45.717 41.0457 45.6959 41.0734 45.6741 41.102C45.3011 41.5892 44.9084 42.0567 44.5011 42.5155C44.4774 42.5422 44.4538 42.569 44.4294 42.5965C44.0683 43.003 43.686 43.3888 43.3027 43.7741C43.2783 43.7986 43.254 43.8231 43.2289 43.8484C42.9404 44.1386 42.6476 44.4188 42.3362 44.6842C42.2779 44.735 42.2197 44.7859 42.1616 44.8368C38.4604 48.0536 33.8458 50.101 29.0051 50.7868C28.9494 50.7948 28.8937 50.8028 28.8363 50.8111C27.7462 50.9584 26.6604 51.0031 25.5612 50.9998C25.4957 50.9997 25.4302 50.9996 25.3627 50.9995C24.3448 50.9971 23.3459 50.9662 22.3364 50.8288C22.2692 50.8199 22.202 50.8111 22.1328 50.8019C17.9818 50.2463 13.965 48.6643 10.584 46.1816C10.5545 46.16 10.5251 46.1385 10.4948 46.1162C10.1805 45.8849 9.87332 45.6456 9.57036 45.3996C9.42044 45.2803 9.26595 45.1681 9.10967 45.0573C9.08588 45.0364 9.0621 45.0155 9.03759 44.994C9.03759 44.9599 9.03759 44.9258 9.03759 44.8907C9.00995 44.8795 8.9823 44.8682 8.95383 44.8566C8.78841 44.7631 8.65897 44.6368 8.52213 44.5067C8.31425 44.3092 8.31425 44.3092 8.09043 44.1305C8.04897 44.0978 8.04897 44.0978 8.00667 44.0645C8.00667 44.0305 8.00667 43.9964 8.00667 43.9613C7.97699 43.9483 7.94731 43.9354 7.91673 43.9221C7.7847 43.8493 7.69627 43.7661 7.59008 43.6591C7.55051 43.6194 7.51094 43.5796 7.47017 43.5387C7.42928 43.4971 7.38838 43.4555 7.34624 43.4126C7.30594 43.3722 7.26564 43.3318 7.22412 43.2902C7.00433 43.0684 6.7927 42.842 6.58913 42.6052C6.49281 42.4934 6.39281 42.3852 6.29278 42.2767C6.03402 41.989 5.7976 41.6864 5.56147 41.3801C5.47454 41.268 5.38679 41.1565 5.29891 41.0451C4.96207 40.6169 4.64012 40.1869 4.34692 39.7271C4.30338 39.6609 4.25975 39.5948 4.21604 39.5287C3.61324 38.6131 3.08795 37.6592 2.59437 36.6806C2.57351 36.6394 2.55265 36.5982 2.53117 36.5557C1.32778 34.1556 0.589524 31.4945 0.23769 28.8375C0.224043 28.7347 0.209887 28.6319 0.195699 28.5292C-0.0720493 26.5098 -0.0671308 24.3424 0.223259 22.326C0.228507 22.2889 0.233755 22.2518 0.239163 22.2136C0.864364 17.8069 2.50106 13.6254 5.2232 10.0883C5.2447 10.0603 5.26621 10.0322 5.28836 10.0033C5.55095 9.66143 5.81973 9.32553 6.09948 8.99754C6.12202 8.97106 6.14457 8.94457 6.1678 8.91729C6.63238 8.37791 7.12334 7.86544 7.62604 7.36193C7.72334 7.26435 7.82021 7.16637 7.91707 7.06837C8.23779 6.74564 8.5602 6.4382 8.91781 6.1563C9.03737 6.06094 9.15044 5.96084 9.2631 5.85745C9.55239 5.59782 9.86028 5.36349 10.1716 5.13133C10.206 5.10569 10.2403 5.08004 10.2757 5.05362C13.7565 2.46954 17.7704 0.825038 22.0593 0.216269C22.1151 0.208269 22.1708 0.200269 22.2283 0.192027C23.3384 0.0420084 24.4451 -0.00160733 25.5645 4.48614e-05ZM12.9035 11.3276C12.834 11.3871 12.7642 11.4463 12.6941 11.5051C11.8645 12.2355 11.2357 13.1879 10.7386 14.1675C10.7218 14.2 10.705 14.2324 10.6878 14.2658C9.49319 16.5935 9.38869 19.3596 10.1436 21.8364C10.5859 23.2123 11.3697 24.5133 12.1303 25.7339C12.1587 25.7795 12.187 25.8252 12.2163 25.8722C13.1689 27.3999 14.2161 28.8419 15.3532 30.2359C15.4208 30.319 15.4879 30.4026 15.5549 30.4862C15.802 30.7934 16.0614 31.0856 16.3291 31.3747C16.4318 31.4863 16.5322 31.5989 16.6309 31.714C17.0987 32.2519 17.5954 32.7632 18.0968 33.2695C18.1422 33.3157 18.1877 33.3619 18.2345 33.4095C18.277 33.4522 18.3195 33.4948 18.3633 33.5387C18.4014 33.5771 18.4395 33.6154 18.4787 33.6549C18.5656 33.7487 18.5656 33.7487 18.6766 33.7374C18.69 33.7682 18.7034 33.7989 18.7171 33.8306C18.7848 33.9531 18.8497 34.0165 18.9569 34.1053C19.1916 34.3033 19.4154 34.5118 19.6395 34.7215C19.7463 34.8328 19.7463 34.8328 19.8622 34.8218C19.8622 34.8559 19.8622 34.8899 19.8622 34.925C19.9399 34.996 20.0212 35.0631 20.1038 35.1284C20.2933 35.28 20.4805 35.4326 20.6642 35.5913C21.0521 35.9257 21.4562 36.2371 21.8649 36.5454C21.9721 36.6264 22.079 36.7078 22.1858 36.7894C22.6557 37.1469 23.1358 37.4863 23.625 37.8166C23.6566 37.838 23.6881 37.8594 23.7206 37.8815C25.3636 38.9966 27.1062 40.1491 28.9858 40.8115C29.0212 40.8242 29.0566 40.8368 29.0931 40.8499C31.644 41.7492 34.4145 41.4588 36.8351 40.317C38.6031 39.4518 40.4461 37.8473 41.1732 35.9707C41.4513 35.1132 41.4177 34.2295 41.0217 33.4147C40.4557 32.3244 39.3624 31.8212 38.3436 31.2281C37.9275 30.9857 37.5149 30.7379 37.1028 30.4888C36.9574 30.401 36.8118 30.3135 36.6661 30.2262C36.6124 30.1938 36.5587 30.1615 36.5034 30.1281C36.4496 30.096 36.3958 30.064 36.3403 30.031C36.292 30.002 36.2437 29.9731 36.1939 29.9433C35.4462 29.5419 34.5689 29.5268 33.7671 29.7581C32.9466 30.0429 32.2999 30.5765 31.911 31.3557C31.7912 31.6036 31.684 31.8549 31.5824 32.1109C31.3377 32.7139 30.9423 33.068 30.3544 33.3253C29.8669 33.5131 29.238 33.496 28.7516 33.31C28.3121 33.0906 27.902 32.8179 27.491 32.5498C27.4596 32.5295 27.4282 32.5093 27.3958 32.4884C27.2192 32.3742 27.0454 32.2564 26.8724 32.1367C26.8251 32.1042 26.8251 32.1042 26.7768 32.0709C25.3796 31.1069 24.0197 30.0266 22.8315 28.8099C22.7388 28.719 22.6415 28.6354 22.5426 28.5513C22.368 28.4006 22.2196 28.2386 22.0708 28.0628C21.9664 27.9438 21.8563 27.833 21.7436 27.7219C21.5349 27.5149 21.3412 27.3002 21.1508 27.0764C21.1024 27.0203 21.054 26.9641 21.0055 26.908C20.7027 26.5569 20.4046 26.2033 20.1199 25.8372C20.0971 25.808 20.0742 25.7789 20.0506 25.7489C17.4683 22.4524 17.4683 22.4524 17.5942 21.1383C17.7196 20.5013 18.0334 19.9599 18.5736 19.5893C18.8066 19.4635 19.0497 19.3664 19.2962 19.2706C19.7743 19.0812 20.1849 18.8389 20.5323 18.4533C20.5602 18.4249 20.5881 18.3966 20.6169 18.3674C21.2064 17.7434 21.4315 16.9206 21.4086 16.0781C21.3416 15.0436 20.7103 14.1886 20.1929 13.3262C20.0479 13.0842 19.9047 12.8412 19.7619 12.5979C19.6972 12.4878 19.6325 12.3778 19.5677 12.2677C19.5264 12.1973 19.4851 12.1269 19.4439 12.0564C18.7832 10.9265 18.1478 10.025 16.821 9.67526C16.6784 9.64428 16.5558 9.63125 16.4086 9.62362C16.3755 9.62103 16.3423 9.61843 16.3082 9.61575C14.97 9.55381 13.8218 10.4537 12.9035 11.3276Z" fill="black"/>
</svg>
