<svg width="38" height="37" viewBox="0 0 38 37" fill="none" xmlns="http://www.w3.org/2000/svg">
<g clip-path="url(#clip0_1_1939)">
<path d="M0.861328 0.000565559C2.27031 -0.02649 3.67924 -0.0468556 5.08843 -0.0593423C5.74281 -0.0652953 6.39703 -0.0734045 7.05131 -0.0866613C7.62185 -0.0982159 8.19227 -0.105652 8.76293 -0.108224C9.06494 -0.109727 9.36661 -0.113236 9.66851 -0.121685C11.5041 -0.171112 11.5041 -0.171112 11.9507 0.113568C12.2206 0.376751 12.3795 0.670517 12.5129 1.02011C12.5898 1.20977 12.702 1.36578 12.8235 1.52944C12.8951 1.63406 12.9666 1.7387 13.0381 1.84334C13.4264 2.41121 13.8157 2.97835 14.2057 3.54507C14.3706 3.78475 14.5354 4.0245 14.7002 4.26424C14.7664 4.36059 14.8327 4.45695 14.8989 4.5533C19.271 10.9127 19.271 10.9127 19.3705 11.0574C19.4364 11.1532 19.5022 11.249 19.5681 11.3448C19.7393 11.5937 19.9103 11.8427 20.0812 12.0918C20.1164 12.1432 20.1517 12.1945 20.188 12.2475C20.2548 12.3447 20.3215 12.442 20.3881 12.5394C20.5965 12.8428 20.8088 13.143 21.0234 13.442C21.3058 13.1669 21.5662 12.8784 21.8229 12.5793C21.8638 12.5319 21.9047 12.4845 21.9468 12.4356C22.0728 12.2895 22.1985 12.1431 22.3242 11.9967C22.3619 11.9529 22.3995 11.909 22.4383 11.8639C22.6897 11.5712 22.9406 11.2781 23.1914 10.9849C23.6748 10.4199 24.1596 9.8561 24.647 9.2945C25.0551 8.82394 25.4603 8.35086 25.8652 7.87752C26.3486 7.31245 26.8334 6.74868 27.3208 6.18707C27.729 5.71652 28.1341 5.24344 28.5391 4.7701C29.0224 4.20503 29.5072 3.64126 29.9946 3.07965C30.479 2.52122 30.9594 1.9594 31.4396 1.39732C31.4772 1.35327 31.5149 1.30921 31.5537 1.26382C31.6242 1.18138 31.6947 1.0989 31.7651 1.01636C31.8326 0.937411 31.9015 0.859652 31.9717 0.783014C32.0873 0.650475 32.0873 0.650475 32.1749 0.477543C32.3192 0.250567 32.4248 0.138879 32.6582 0.000565559C33.213 -0.110784 33.7947 -0.0602558 34.3564 -0.0400838C34.514 -0.036819 34.6715 -0.0338518 34.829 -0.0311918C35.2136 -0.0240499 35.598 -0.0131905 35.9824 0.000565559C35.9143 0.0924639 35.846 0.18425 35.7777 0.27599C35.7207 0.352679 35.7207 0.352679 35.6626 0.430916C35.5075 0.632433 35.3396 0.813751 35.1649 0.998734C34.8499 1.33606 34.5553 1.68493 34.2658 2.04461C34.0971 2.24851 33.9214 2.44357 33.7422 2.63826C33.4449 2.96128 33.1662 3.29519 32.8905 3.63671C32.6824 3.88885 32.4626 4.1291 32.2424 4.37066C32.0756 4.55833 31.9171 4.75088 31.7594 4.94624C31.4805 5.29113 31.186 5.61785 30.8857 5.94413C30.653 6.20327 30.4354 6.47318 30.2167 6.74413C30.0086 6.99628 29.7888 7.23652 29.5686 7.47808C29.4018 7.66575 29.2432 7.8583 29.0856 8.05367C28.8067 8.39855 28.5122 8.72527 28.2119 9.05155C27.9792 9.3107 27.7616 9.5806 27.5429 9.85156C27.386 10.0417 27.2237 10.2247 27.0576 10.4068C26.8325 10.6538 26.6174 10.9058 26.4072 11.1656C26.1462 11.4882 25.8734 11.7965 25.594 12.1031C25.4272 12.2908 25.2686 12.4833 25.111 12.6787C24.832 13.0236 24.5376 13.3503 24.2373 13.6766C24.0052 13.9351 23.7879 14.2042 23.5702 14.4749C23.3543 14.7356 23.1243 14.9821 22.8913 15.2277C22.7472 15.4062 22.6617 15.5294 22.6133 15.7545C22.6949 15.949 22.6949 15.949 22.8436 16.1384C22.925 16.2525 22.925 16.2525 23.0079 16.369C23.0377 16.4098 23.0675 16.4506 23.0982 16.4927C23.2276 16.6717 23.3518 16.8542 23.4763 17.0367C23.5771 17.1843 23.6785 17.3316 23.78 17.4787C23.9816 17.7709 24.1827 18.0634 24.3838 18.356C24.45 18.4524 24.5163 18.5487 24.5825 18.6451C26.0399 20.7649 27.4972 22.8847 28.9546 25.0045C28.9874 25.0521 29.0201 25.0998 29.0539 25.149C29.1203 25.2455 29.1866 25.342 29.253 25.4385C29.4168 25.6768 29.5806 25.915 29.7444 26.1531C30.1423 26.7314 30.5391 27.3104 30.9353 27.8898C31.2837 28.3991 31.6332 28.9078 31.983 29.4162C32.1479 29.6558 32.3127 29.8956 32.4775 30.1353C32.5438 30.2317 32.61 30.328 32.6763 30.4244C33.6037 31.7734 34.5311 33.1223 35.4585 34.4713C35.4913 34.519 35.5242 34.5668 35.558 34.616C35.6238 34.7118 35.6897 34.8076 35.7555 34.9034C35.9268 35.1528 36.0986 35.4019 36.2712 35.6504C36.3068 35.7018 36.3424 35.7531 36.379 35.8061C36.4465 35.9035 36.5142 36.0008 36.582 36.0979C36.6128 36.1425 36.6437 36.1871 36.6754 36.233C36.7022 36.2715 36.7289 36.3099 36.7564 36.3495C36.8925 36.5616 37.0141 36.7815 37.1387 37.0006C35.7322 37.0327 34.3258 37.0569 32.9191 37.0717C32.2658 37.0788 31.6127 37.0884 30.9596 37.1041C30.3899 37.1179 29.8205 37.1267 29.2507 37.1298C28.9492 37.1315 28.6481 37.1357 28.3468 37.1457C26.5199 37.2043 26.5199 37.2043 26.0368 36.8688C25.7308 36.5543 25.5404 36.2021 25.368 35.8018C25.2387 35.5233 25.0606 35.2833 24.8806 35.0358C24.8154 34.9416 24.7505 34.8473 24.6858 34.7527C24.654 34.7064 24.6221 34.66 24.5892 34.6123C24.4243 34.3726 24.2595 34.1329 24.0947 33.8931C24.0285 33.7968 23.9622 33.7004 23.896 33.6041C22.4386 31.4843 20.9813 29.3645 19.5239 27.2447C19.4911 27.197 19.4584 27.1494 19.4246 27.1002C19.3582 27.0037 19.2919 26.9072 19.2255 26.8106C19.0618 26.5724 18.898 26.3342 18.7341 26.0961C18.5335 25.8046 18.3331 25.5129 18.1328 25.2213C18.095 25.1662 18.0571 25.1111 18.0181 25.0543C17.4965 24.2947 16.9794 23.5325 16.4707 22.7642C15.9988 23.2665 15.5399 23.7721 15.1081 24.3098C14.9532 24.4985 14.7924 24.6795 14.6279 24.8599C14.4042 25.1054 14.1906 25.3558 13.9821 25.6142C13.7031 25.9591 13.4087 26.2858 13.1084 26.6121C12.8757 26.8712 12.658 27.1411 12.4394 27.4121C12.2313 27.6642 12.0114 27.9045 11.7912 28.146C11.6244 28.3337 11.4659 28.5263 11.3082 28.7216C11.0293 29.0665 10.7348 29.3932 10.4345 29.7195C10.2019 29.9787 9.98421 30.2486 9.76553 30.5195C9.55743 30.7717 9.33758 31.0119 9.11739 31.2535C8.95061 31.4411 8.79208 31.6337 8.6344 31.8291C8.35548 32.1739 8.06101 32.5007 7.76072 32.8269C7.52804 33.0861 7.31038 33.356 7.0917 33.6269C6.8836 33.8791 6.66376 34.1193 6.44357 34.3609C6.27678 34.5486 6.11825 34.7411 5.96057 34.9365C5.68237 35.2805 5.38874 35.6064 5.08915 35.9318C4.84354 36.2054 4.61246 36.489 4.38174 36.7753C4.25781 36.9283 4.25781 36.9283 4.18555 37.0006C4.08127 37.0073 3.97668 37.0091 3.87219 37.0088C3.77237 37.0088 3.77237 37.0088 3.67053 37.0088C3.59819 37.0084 3.52585 37.008 3.45132 37.0076C3.37763 37.0075 3.30395 37.0074 3.22804 37.0073C2.99166 37.0069 2.75529 37.006 2.51892 37.0051C2.3591 37.0047 2.19928 37.0044 2.03946 37.0041C1.64674 37.0033 1.25404 37.0021 0.861328 37.0006C0.930136 36.908 0.999053 36.8156 1.06802 36.7232C1.10638 36.6717 1.14475 36.6202 1.18428 36.5671C1.31647 36.3943 1.4584 36.234 1.60657 36.0747C1.8364 35.8233 2.05641 35.5672 2.27051 35.3023C2.53149 34.9797 2.80431 34.6714 3.08378 34.3648C3.25057 34.1772 3.40909 33.9846 3.56677 33.7893C3.84569 33.4444 4.14016 33.1177 4.44045 32.7914C4.67313 32.5322 4.89079 32.2623 5.10947 31.9914C5.31757 31.7392 5.53742 31.499 5.75761 31.2574C5.92439 31.0698 6.08292 30.8772 6.2406 30.6818C6.51952 30.337 6.81399 30.0102 7.11428 29.684C7.34696 29.4248 7.56462 29.1549 7.7833 28.8839C7.9914 28.6318 8.21124 28.3916 8.43143 28.15C8.59822 27.9623 8.75675 27.7698 8.91443 27.5744C9.19334 27.2295 9.48782 26.9028 9.78811 26.5765C10.0208 26.3174 10.2384 26.0475 10.4571 25.7765C10.6652 25.5244 10.8851 25.2841 11.1053 25.0426C11.272 24.8549 11.4306 24.6624 11.5883 24.467C11.8672 24.1221 12.1616 23.7954 12.4619 23.4691C12.6946 23.21 12.9123 22.9401 13.131 22.6691C13.3385 22.4176 13.5577 22.178 13.7774 21.9371C14.0087 21.6768 14.2266 21.4062 14.4442 21.1343C14.5918 20.9576 14.5918 20.9576 14.7598 20.808C14.7997 20.762 14.8397 20.7159 14.8809 20.6685C14.8368 20.3477 14.6391 20.1132 14.4563 19.8555C14.3835 19.7513 14.3106 19.647 14.2378 19.5428C14.2005 19.4896 14.1631 19.4365 14.1247 19.3817C13.9535 19.1373 13.7849 18.8912 13.6162 18.6451C13.55 18.5487 13.4837 18.4524 13.4175 18.356C12.755 17.3925 12.0926 16.429 11.4302 15.4654C11.3974 15.4177 11.3646 15.3701 11.3308 15.3209C11.2645 15.2244 11.1981 15.1279 11.1318 15.0313C10.968 14.7931 10.8042 14.5549 10.6403 14.3168C10.2425 13.7385 9.84565 13.1595 9.44943 12.5801C9.10103 12.0707 8.75156 11.5621 8.40172 11.0537C8.23682 10.814 8.07203 10.5743 7.90723 10.3345C7.84098 10.2382 7.77474 10.1418 7.7085 10.0455C6.25114 7.9257 4.79378 5.8059 3.33643 3.68611C3.28726 3.6146 3.28726 3.6146 3.2371 3.54163C3.17073 3.44511 3.10437 3.34857 3.03801 3.25204C2.87425 3.01382 2.71046 2.77563 2.54659 2.53748C2.41636 2.34823 2.28623 2.1589 2.15618 1.96952C2.0016 1.74443 1.84662 1.51961 1.69154 1.29485C1.606 1.17056 1.52046 1.04626 1.43494 0.921952C1.39443 0.863375 1.35392 0.804798 1.31218 0.744446C1.25543 0.661838 1.25543 0.661838 1.19753 0.577561C1.16399 0.528911 1.13045 0.480261 1.09589 0.430137C1.00663 0.290825 0.934173 0.148957 0.861328 0.000565559ZM5.3418 2.4576C5.4218 2.58397 5.50188 2.71029 5.58201 2.83659C5.6266 2.90694 5.67118 2.97729 5.71712 3.04977C5.88728 3.31407 6.06658 3.57067 6.24963 3.82613C6.32522 3.93243 6.40078 4.03876 6.47631 4.14511C6.53477 4.22731 6.53477 4.22731 6.59441 4.31117C6.80148 4.60324 7.00654 4.89671 7.21167 5.19014C7.27505 5.28075 7.27505 5.28075 7.3397 5.37319C7.42573 5.49618 7.51176 5.61918 7.59777 5.74219C7.80922 6.04453 8.02083 6.34676 8.23242 6.649C8.31673 6.76944 8.40104 6.88989 8.48535 7.01033C8.54795 7.09976 8.54795 7.09976 8.61182 7.191C8.73828 7.37166 8.86475 7.55232 8.99121 7.73299C9.03293 7.79259 9.07465 7.85219 9.11764 7.9136C9.20207 8.03421 9.2865 8.15483 9.37092 8.27546C9.57982 8.57392 9.78878 8.87234 9.99785 9.17068C10.4956 9.88108 10.9917 10.5926 11.4868 11.3048C11.9251 11.935 12.365 12.5639 12.8056 13.1925C13.0157 13.4924 13.2256 13.7924 13.4355 14.0924C13.5199 14.2128 13.6042 14.3332 13.6885 14.4537C13.8571 14.6946 14.0257 14.9355 14.1943 15.1763C14.2361 15.2359 14.2778 15.2956 14.3208 15.357C14.4052 15.4776 14.4896 15.5982 14.574 15.7188C14.7829 16.0173 14.9919 16.3157 15.201 16.614C15.6987 17.3244 16.1949 18.0359 16.69 18.7482C17.1282 19.3784 17.5682 20.0073 18.0087 20.6359C18.2188 20.9358 18.4287 21.2357 18.6387 21.5357C18.723 21.6562 18.8073 21.7766 18.8916 21.897C19.0602 22.1379 19.2288 22.3788 19.3975 22.6197C19.4392 22.6793 19.4809 22.7389 19.5239 22.8003C19.6083 22.9209 19.6927 23.0416 19.7772 23.1622C19.9861 23.4606 20.195 23.7591 20.4041 24.0574C20.9018 24.7678 21.398 25.4793 21.8931 26.1915C22.3313 26.8217 22.7713 27.4507 23.2118 28.0793C23.4219 28.3791 23.6318 28.6791 23.8418 28.9791C23.9261 29.0995 24.0104 29.22 24.0947 29.3404C24.6006 30.0631 25.1064 30.7857 25.6123 31.5084C25.6541 31.5681 25.6959 31.6277 25.7389 31.6892C25.8228 31.809 25.9066 31.9288 25.9904 32.0486C26.2082 32.3598 26.4261 32.6708 26.6443 32.9816C26.7118 33.0778 26.7118 33.0778 26.7807 33.176C26.8659 33.2974 26.9511 33.4188 27.0364 33.5401C27.0755 33.5958 27.1145 33.6515 27.1547 33.7088C27.2052 33.7807 27.2052 33.7807 27.2568 33.8541C27.3828 34.0377 27.3828 34.0377 27.4548 34.2008C27.5572 34.4037 27.6451 34.5374 27.8164 34.6881C28.183 34.7804 28.5433 34.764 28.9179 34.7516C29.0258 34.7504 29.1338 34.7494 29.2417 34.7488C29.5248 34.7463 29.8077 34.7399 30.0907 34.7327C30.3798 34.7261 30.669 34.7231 30.9583 34.7198C31.525 34.7129 32.0916 34.7018 32.6582 34.6881C32.5774 34.5606 32.4966 34.4331 32.4157 34.3056C32.3707 34.2346 32.3257 34.1637 32.2793 34.0905C32.1364 33.8684 31.9872 33.6549 31.8317 33.4415C31.5057 32.9905 31.187 32.5346 30.8696 32.0775C30.5001 31.5454 30.1302 31.0137 29.7585 30.4831C29.6968 30.395 29.6968 30.395 29.6338 30.3051C29.5512 30.1871 29.4685 30.0691 29.3859 29.9512C29.1758 29.6513 28.9658 29.3513 28.7559 29.0513C28.6716 28.9309 28.5872 28.8105 28.5029 28.69C28.3343 28.4491 28.1657 28.2082 27.9971 27.9674C27.9553 27.9078 27.9136 27.8482 27.8706 27.7868C27.7862 27.6661 27.7018 27.5455 27.6174 27.4249C27.4085 27.1264 27.1995 26.828 26.9904 26.5297C26.4927 25.8193 25.9965 25.1078 25.5014 24.3955C25.0632 23.7653 24.6232 23.1364 24.1827 22.5078C23.9726 22.2079 23.7627 21.908 23.5527 21.608C23.4684 21.4875 23.3841 21.3671 23.2998 21.2467C23.1312 21.0058 22.9626 20.7649 22.7939 20.524C22.7522 20.4644 22.7105 20.4048 22.6675 20.3434C22.5831 20.2228 22.4987 20.1022 22.4142 19.9815C22.2053 19.6831 21.9964 19.3847 21.7873 19.0863C21.2896 18.3759 20.7934 17.6644 20.2983 16.9522C19.8601 16.322 19.4201 15.693 18.9796 15.0645C18.7695 14.7646 18.5596 14.4646 18.3496 14.1646C18.2653 14.0442 18.181 13.9237 18.0967 13.8033C17.5908 13.0806 17.085 12.358 16.5791 11.6353C16.5165 11.5459 16.5165 11.5459 16.4527 11.4547C16.3682 11.3341 16.2838 11.2135 16.1994 11.0929C15.9905 10.7944 15.7815 10.496 15.5725 10.1976C15.0747 9.48724 14.5786 8.77575 14.0835 8.06351C13.6453 7.43331 13.2053 6.80438 12.7648 6.17578C12.5129 5.81628 12.2612 5.45664 12.0095 5.09699C11.7918 4.78584 11.5739 4.47483 11.3557 4.16403C11.2882 4.06782 11.2882 4.06782 11.2193 3.96967C11.1341 3.84824 11.0489 3.72686 10.9636 3.60552C10.905 3.52203 10.905 3.52203 10.8453 3.43685C10.8116 3.38891 10.7779 3.34096 10.7432 3.29156C10.6172 3.10799 10.6172 3.10799 10.5452 2.94491C10.4428 2.742 10.3549 2.60826 10.1836 2.4576C9.81696 2.36529 9.45666 2.38171 9.08211 2.39408C8.97418 2.3953 8.86624 2.39622 8.7583 2.39687C8.47522 2.39935 8.19235 2.40573 7.90935 2.41294C7.62017 2.41961 7.33096 2.42257 7.04173 2.42584C6.47499 2.4328 5.90842 2.44389 5.3418 2.4576Z" fill="black"/>
</g>
<defs>
<clipPath id="clip0_1_1939">
<rect width="37" height="37" fill="white" transform="translate(0.5)"/>
</clipPath>
</defs>
</svg>
